<?xml version="1.0" encoding="UTF-8"?>
<svg id="staff" width="92.481" height="399.69" version="1.0" xmlns="http://www.w3.org/2000/svg" xmlns:cc="http://creativecommons.org/ns#" xmlns:dc="http://purl.org/dc/elements/1.1/" xmlns:rdf="http://www.w3.org/1999/02/22-rdf-syntax-ns#">
 <title>The Staff of Asclepius</title>
 <metadata>
  <rdf:RDF>
   <cc:Work rdf:about="">
    <dc:format>image/svg+xml</dc:format>
    <dc:type rdf:resource="http://purl.org/dc/dcmitype/StillImage"/>
    <dc:title>The Staff of Asclepius</dc:title>
    <dc:source>https://commons.wikimedia.org/wiki/File:Esclapius_stick.svg</dc:source>
    <dc:contributor>
     <cc:Agent>
      <dc:title>Philip McGrath https://commons.wikimedia.org/wiki/User:Rama https://commons.wikimedia.org/wiki/User:Melian https://commons.wikimedia.org/wiki/User:Erin_Silversmith</dc:title>
     </cc:Agent>
    </dc:contributor>
    <dc:rights>
     <cc:Agent>
      <dc:title>Public Domain</dc:title>
     </cc:Agent>
    </dc:rights>
    <dc:creator>
     <cc:Agent>
      <dc:title/>
     </cc:Agent>
    </dc:creator>
    <dc:description>A symbol for medicine</dc:description>
    <cc:license rdf:resource="https://commons.wikimedia.org/wiki/Template:PD-self"/>
   </cc:Work>
  </rdf:RDF>
 </metadata>
 <g fill="#407ec9" stroke="#000" stroke-linecap="round" stroke-linejoin="round" stroke-width="5.0003">
  <path d="m57.341 290.41c23.136 15.699 9.0364 36.493-4.572 51.937-0.066 2.756-0.071 5.542 0.012 8.38 4.744-3.364 8.25-6.427 10.914-8.456 8.237-6.277 21.476-20.58 19.613-33.735-2.841-20.193-15.49-28.96-28.637-38.835-6.61-4.873-12.176-8.894-16.312-12.718-5.189-4.8-8.125-9.286-8.01-14.743 0.141-6.615 3.134-13.377 7.444-19.841-0.05-8.551-2.786-16.345-2.003-24.184-13.072 13.969-24.039 28.983-23.487 47.556 0.538 18.094 13.521 26.692 26.946 34.075 6.363 3.497 12.808 6.732 18.092 10.564z"/>
  <path d="m58.587 121.85c6.235 5.967 11.382 14.168 11.382 26.244 0 15.699-6.42 23.771-14.562 31.328-1.305 7.906-0.859 15.156-0.221 23.054 3.648-3.492 7.158-6.635 10.075-9.27 12.161-10.983 24.387-28.637 24.714-49.428 0.377-24.097-16.575-38.44-31.477-48.903-0.625-0.439-1.25-0.882-1.866-1.309-6.78-4.693-12.984-8.937-17.716-13.034-5.152-4.461-8.552-8.75-8.961-13.25-0.46-5.046 2.194-10.68 7.181-12.414 0.815-0.284 1.688-0.476 2.627-0.531 4.171-0.246 12.045 11.486 21.659 14.873 2.117 0.746 4.319 1.103 6.585 0.819 4.282-0.536 4.4296-0.79585 4.4296-7.4639 4.314 0.392 7.7004 4.5549 8.1234-6.2661 0.239-6.12-4.611-17.83-19.74-24.796-4.417-2.034-9.663-3.485-15.957-3.84-3.173-0.179-6.863 0.374-10.645 1.618-12.092 3.981-25.146 15.254-25.445 34.08-0.251 15.746 15.554 33.654 29.549 44.029 1.693 1.255 3.365 2.421 4.973 3.437 4.353 2.75 10.187 6.139 15.292 11.023z"/>
  <path d="m42.349 351.31c-11.827 8.8957-25.65 14.272-39.852 18.027 17.571-2.243 30.382-7.072 39.913-12.191-2e-3 -1.931-0.036-3.887-0.061-5.836z"/>
 </g>
 <g fill="#800000" stroke="#000" stroke-linecap="round" stroke-linejoin="round" stroke-width="5.0003">
  <path d="m37.793 222.4c0 0.076 9e-3 0.149 9e-3 0.228 0 11.84 0.208 23.169 0.557 34.356 4.136 3.824 9.701 7.845 16.312 12.718 0.574 0.423 1.156 0.869 1.735 1.314-0.095-2.345-0.166-4.639-0.166-6.808 0-8.97 0.042-14.154 2.94-21.6 1.71-4.395 9.222-14.097-0.234-15.961-1.069 1.776-2.961 2.561-3.919 4.354-2.027-7.401 1.068-17.441 0.43-25.243-0.09-1.109-0.182-2.201-0.27-3.283-0.639-7.897-1.084-15.147 0.221-23.054 0.019-0.114 0.03-0.225 0.049-0.338 1.271-7.423 3.53-13.338 2.763-22.36-0.262-3.08 3.121-5.491 2.729-9.807-0.499-5.47-4.314 0-3.567-9.807 0.219-2.864 1.761-6.366 1.781-9.415 0.014-1.928-0.271-3.888-0.574-5.846-5.105-4.884-10.939-8.273-15.293-11.023-1.607-1.016-3.279-2.182-4.973-3.437 1.098 23.041 4.959 46.592 0.266 47.765-3.7-0.693-3.157-5.755-7.061-7.061-9.023 2.745-6.871 6.518-4.316 12.945 2.313 5.822 0.785 10.592 4.318 16.867 2.521 4.478 5.488 10.2 4.305 19.676-0.026 0.212-0.022 0.423-0.043 0.635-0.785 7.84 1.951 15.634 2.001 24.185z"/>
  <path d="m42.409 357.15c0.017 13.842-0.574 27.266-2.254 40.043 13.73-12.945 14.515-16.866 12.947-39.62-0.161-2.326-0.258-4.597-0.322-6.843-0.083-2.838-0.078-5.624-0.012-8.38 0.242-9.96 1.421-19.552 3.471-29.891 1.297-6.532 1.373-14.223 1.102-22.047-5.284-3.832-11.729-7.066-18.092-10.564 0.496 10.918 1.08 21.935 1.691 33.397 0.688 12.909 1.247 25.636 1.408 38.068 0.026 1.95 0.06 3.906 0.061 5.837z"/>
  <path d="m60.821 31.5c0.87939-6.7023 5.5304-14.337 3.657-21.1-3.503-4.911-8.665 0.945-12.161 0-6.894-1.861-5.099-6.276-12.553-7.453-6.443-1.017-8.237-1.57-6.669 13.337 0.47 4.471 0.796 8.751 1.124 12.995 3.781-1.245 7.472-1.797 10.645-1.618 6.294 0.355 11.54 1.805 15.957 3.839z"/>
  <path id="trace" d="m37.138 54.862c1.2 8.47 2.15 17.15 1.77 25.67 4.74 4.095 10.945 8.338 17.725 13.032 0.616 0.427 1.241 0.868 1.865 1.308 0.16-1.148 0.281-2.304 0.488-3.444 1.402-7.725 2.275-14.791 2.437-22.219-9.0831-1.2751-14.821-17.105-24.286-14.343z"/>
 </g>
 <ellipse id="eye" cx="62.908" cy="44.912" rx="4.12" ry="4.35"/>
</svg>
