<?xml version="1.0" encoding="UTF-8"?>
<svg width="480" height="480" version="1.1" viewBox="0 0 480 480" xml:space="preserve" xmlns="http://www.w3.org/2000/svg"><defs><filter id="filter1865" x="-.0027482" y="-.0033026" width="1.0055" height="1.0066" color-interpolation-filters="sRGB"><feGaussianBlur stdDeviation="0.57253821"/></filter></defs><g><path transform="matrix(1.3333 0 0 -1.3333 0 480)" d="m177.15 303.84-94.933-0.037c-0.069-2.728 0.048-51.748 4.015-89.779h90.84" fill="#155f83"/><g transform="matrix(1.3333 0 0 -1.3333 0 480)"><g transform="translate(112.43 285.4)"><path d="m0 0-1.065 1.729v0.634h-1.508v-0.855h-6.182v6.838h0.803v1.589h-0.589l-1.652 1.131h-0.59l-1.747-1.131h-0.616v-1.589h0.833v-6.842l-6.495 4e-3v0.855h-1.507v-0.634l-1.073-1.729v-0.634l1.073-1.825v-0.645h1.507v0.859l6.495-7e-3v-6.507h-0.833v-1.596h0.609l1.64-1.121h0.601l1.736 1.121h0.608v1.596h-0.803v6.514h6.182v-0.859h1.508v0.645l1.065 1.825z" fill="#fff"/></g><g transform="translate(173.09 233.19)"><path d="m0 0-1.062 1.721v0.646h-1.511v-0.859h-6.186v6.841h0.808v1.593h-0.579l-1.663 1.124h-0.604l-1.733-1.124h-0.604v-1.593h0.814v-6.841h-6.495v0.859h-1.5v-0.635l-1.073-1.732v-0.634l1.073-1.821v-0.645h1.5v0.855h6.495v-6.514h-0.814v-1.599h0.623l1.633-1.114h0.589l1.722 1.114h0.616v1.599h-0.808v6.514h6.186v-0.855h1.511v0.656l1.062 1.81z" fill="#fff"/></g><g transform="translate(172.47 286.05)"><path d="m0 0-1.069 1.732v0.635h-1.496v-0.859h-6.186v6.841h0.807v1.593h-0.578l-1.659 1.124h-0.601l-1.74-1.124h-0.608v-1.593h0.825v-6.841h-6.495v0.859h-1.515v-0.623l-1.054-1.744v-0.634l1.054-1.832v-0.634h1.515v0.855h6.495v-6.525h-0.825v-1.581h0.593l1.655-1.117h0.605l1.74 1.117h0.593v1.581h-0.807v6.525h6.186v-0.855h1.496v0.645l1.069 1.821z" fill="#fff"/></g><g transform="translate(112.1 232.54)"><path d="m0 0-1.047 1.725v0.645h-1.504v-0.855h-6.189v6.841h0.819v1.582h-0.601l-1.656 1.125h-0.586l-1.743-1.125h-0.609v-1.582h0.823v-6.848l-6.496 3e-3v0.859h-1.522v-0.652l-1.062-1.718v-0.634l1.062-1.806v-0.66h1.522v0.855l6.496-7e-3v-6.507h-0.823v-1.592h0.601l1.648-1.121h0.597l1.726 1.121h0.623v1.592h-0.819v6.514h6.189v-0.855h1.504v0.648l1.047 1.818z" fill="#fff"/></g></g><path transform="matrix(1.3333 0 0 -1.3333 0 480)" d="m280.11 214.03h-85.455v89.827h-17.584v-4.707h-3e-3v-85.12h-90.841c0.653-6.244 1.501-12.157 2.555-17.587l88.016 4e-3 0.273-145.51c2.688-2.146 8.693-6.661 8.741-6.695 0 0 6.016 4.516 8.843 6.776v145.43h88.585c0.873 5.4 1.629 11.342 2.277 17.583z" fill="#800000"/><g transform="matrix(1.3333 0 0 -1.3333 235.74 218.08)"><path d="m0 0-88.017-3e-3c1.54-5.515 12.614-86.16 88.352-144.72z" fill="#fff"/></g><g transform="matrix(1.3333 0 0 -1.3333 258.63 412.03)"><path d="m0 0c21.333 15.641 72.561 63.964 89.267 145.47l-89.971-0.229z" fill="#fff"/></g><g transform="matrix(1.3333 0 0 -1.3333 386.07 74.738)"><path d="m0 0-95.299-0.142c-0.162 0-2.097-90.332-2.097-90.332l93.362 0.554c0.151 0 4.034 89.92 4.034 89.92" fill="#fff"/></g></g><g><path d="m386.07 74.738-126.53 0.18945v-0.06641h-23.445v0.013676l-126.47 0.05078c-0.092 3.6373 0.0642 68.997 5.3535 119.71h-4e-3c0.87058 8.3246 2.0011 16.208 3.4062 23.447v2e-3c2.0538 7.3601 16.819 115.94 117.72 194.01v0c3.584 2.8613 11.59 8.8804 11.654 8.9258 0 0 8.0217-6.0218 11.791-9.0352 28.444-20.855 95.839-85.231 118.11-193.9 1.164-7.2 2.1731-15.122 3.0371-23.443h2e-3c0.20134 0 5.3789-119.89 5.3789-119.89z" fill="none" stroke="#000" stroke-linecap="round" stroke-linejoin="round" stroke-width="4"/></g><g display="none"><path id="phoenix" transform="matrix(.15759 0 0 -.15759 137.1 168.58)" d="m42.137 110.01c4.9218-3.335 10.72-4.81 16.03-7.079 6.5832-17.21 0.1594-34.127-3.5359-27.109-6.4816 12.301-9.0309 22.512-12.494 34.188m0.305 188.5-0.407 0.4c-0.4781 0-34.215-21.287-56.138-11.069 16.328 9.03 72.892 44.976 88.369 55.169 7.2976-1.57 10.25 1.059 12.585 2.684-5.916-0.364-25.511-3.426-15.604 14.112 3.8075-15.72 31.291-1.255 41.154 1.015 27.494 6.323 27.293-23.062 24.947-35.206-0.876-4.529 8.425-7.739 13.002-7.087-7.878-19.418-21.332-1.113-22.933-8.515-0.653-3.002-9.656-5.357-9.619-12.816 0.056-10.194 4.037-4.623 4.405-12.521 0.403-7.653-3.265-1.696-2.436-9.973 1.318-13.142 23.063 1.746 32.046-1.812 4.494-1.774 7.472-5.798 11.856-5.004 1.279 1.052 0.699 6.019 0.504 7.792-0.461 4.173-8.181 4.661-11.773 10.36-3.133 4.97 3.55 19.924 7.166 24.317 5.187-24.686 28.322-16.944 31.775-42.9 2.182-7.344-7.951-15.503 0.264-27.45-6.099-5.924-13.437-34.022-0.663-47.224-2.168-5.978-5.013-19.771 6.357-27.821-3.822-8.145-2.95-18.101 0.275-28.231-7.08-0.028-5.671 39.707-48.095 40.966-0.948 0.30399-1.177-4.498 0.042-6.653 5.082-8.931 11.907-8.413 10.446-29.425-0.501-7.195-4.718 1.255-6.968 3.24-5.135 4.535-9.109 5.146-11.343 19.926-17.239-13.511-15.545-29.873-14.468-38.187 0.01-0.017-3.804 10.37-8.16 21.025-0.229 0.564 17.508 21.905 20.332 26.976 35.794 64.428-23.114-20.825-23.236-20.537-3.172 7.345-5.94 13.675-7.806 15.676 0.456 0.89199 10.282 11.853 14.727 21.1 27.684 57.653-16.453-19.193-18.026-17.782-3.343 3.002-6.097 6.761-8.21 5.41-0.496-8.85-2.608-7.649-1.999-16.689-4.614-6.158-14.514-15.843-21.438-20.633 0 0-1.7265 15.998-1.2597 16.565 3.4765 4.237 17.09 18.824 19.874 23.197 45.362 71.246-21.239-17.169-21.361-16.412-0.4719 2.819-4.1243 7.469-8.0059 11.439 0 0 14.707 20.045 18.326 27.491 27.606 56.757-22.187-25.154-22.738-24.852-1.1926 0.628-1.3164 0.61-2.7043 1.086-1.3859 0.46699 1.5254 16.347 3.4433 25.903 3.7383 18.916-6.2839 3.671-9.0117-26.294-2.5593-0.39999-8.7738-1.048-11.125-3.186 1.5215-7.995 3.4145-1.841 6.766-9.532 4.0098-9.2-5.5886-24.292 2.7649-35.345 3.2277-4.26 3.4164-3.544 2.7797-6.346-5.1371 0.37299-8.2598 0.471-11.508-3.969-6.3153 28.698-6.1215 42.522-4.6371 71.689 0.6593 13.265 5.0121 33.324 3.0222 33.707-1.891 0.363-31.949-77.046-39.205-92.22-12.675 4.28 7.8925 71.275 34.029 103.52 2.4629 10.255-13.704-10.404-23.358-18.628-8.8504-7.548-20.057-17.388-32.264-14.016 15.678 16.582 51.625 47.604 55.622 55.352 3.3449 6.646-24.525-20.676-53.975-10.519 19.056 10.211 63.518 32.912 63.598 48.734m53.02-145.61c0.114-7.06-0.39-12.285 1.668-19.459 3.338-10.828 1.663-7.494-2.884-3.769-3.613 4.017-6.993 7.324-8.731 12.023-0.426 3.334 2.251 3.521 9.947 11.205m71.173 174.45c-4.293 7.327 5.124 14.315 5.124 14.315-0.286-20.598 26.046-6.459 39.795-13.009 3.306-1.517 5.622-4.42 6.985-7.481-14.783 10.218-42.109-10.546-51.904 6.175m96.792 38.347c1.052-6.266-4.758-7.834-4.742-7.83 9.031-2.107 13.342 3.263 15.11 6.656 3.466-14.417-11.07-15.232-15.598-16.097-0.014 0 7.361-2.12 7.744-6.92 0.964-12.196 8.807-11.154 10.493-10.191-0.271-1.472-2.697-8.833-11.513-2.188-1.494-1.473 2.408-3.752 3.174-9.807 0.998-7.653 0.75-14.746 9.594-19.414-5.421-4.309-11.805 6.91-12.358 5.566-0.634-1.499 7.524-5.621-1.448-26.785-4.098 2.353-1.819 1.906-6.561 7.544-3.637 3.047-5.068 3.735-2.035-1.278 5.298-6.62 6.55-21.755 4.722-25.834-4.367 1.9-3.244 5.384-8.393 10.133-0.472-2.021 1.581-12.056 6.903-16.856 9.197-8.298 12.449-18.322 12.619-20.3 0.73-7.544-1.644-17.48-2.541-27.199-4.41 0.634-8.158 13.158-9.226 12.449-1.303-0.841 0.556-12.256 8.871-20.031 4.026-11.765 2.412-18.084 1.34-18.509-1.418-0.60701-5.903 12.029-8.346 9.835 11.847-30.124 3.556-40.617 0.428-49.901-2.449 9.515-3.691 16.635-6.751 27.413-6.459-5.065-8.006-12.576-15.897-19.455 0 12.287-7.103 41.95-12.731 48.863-0.259 0.315-10.173-26.596-14.693-38.564-5.864-15.503-6.77-34.893 0-50.003-14.618 20.795-16.187 59.501-3.571 64.719 1.094 2.768-0.761 11.876-3.57 10.746-0.811-4.453-0.269-8.26-3.961-12.608-9.682 2.832-5.27 14.647-4.398 18.569 12.558 15.059 4.707 18.542 4.124 18.146-1.363-3.453-2.546-7.681-6.381-9.251-8.059 13.847-2.894 35.575 12.407 51.814 0.646 6.066-6.846-4.515-11.724-4.148-1.27 11.686 2.966 31.948 24.567 32.691-4.123 1.211-6.33 1.961-7.329 5.404 6.534 0.96699 27.016 2.531 23.634 18.692-1.943-1.944-2.561-4.848-7.902-8.094-3.589-2.188-7.497-2.375-9.532 0.783 9.5 3.145 6.363 14.706-6.04 11.307-3.802-1.041-9.36 2.931-9.633 7.334 2.762-2.761 8.36-0.716 11.592 1.388 13.957 9.071 22.482-4.071 24.361-6.894 0.564 0 6.263 13.132-13.556 16.66-1.653 4.617-6.185 12.773-19.635 11.748-4.433 15.639-17.846 7.928-17.405 0.848-14.25 10.496 0.247 23.736 6.002 25.778 3.989-0.329 3.11-12.962 10.114-10.839 1.694 0.506-5.444 8.703-2.709 12.42 6.427 3.67 6.282-4.702 9.451-1.581 1.574 5.483 7.875 8.549 13.072 9.136 14.565 2.069 25.889-13.895 39.857-6.065m170.89-194.45c-5.876-1.526-21.369-7.713-25.107-13.793 1.985 33.493-8.833 66.385-12.277 74.327-6.714 15.482 2.999-36.017 3.664-47.88 0.021-0.526-55.58 71.453-22.009 16.022 8.691-14.37 22.288-23.75 22.294-23.99 0.231-9.998-0.441-17.353-2.34-22.719-3.427-2.727-75.71 96.203-35.749 27.692 4.946-8.501 33.937-34.212 33.699-34.731-1.838-3.901-5.092-9.587-9.586-13.779-0.761 0.763-16.677 12.5-16.786 13.213-1.207 7.646-1.248 14.868-10.696 9.451 0 0-35.613 41.464-19.123 12.412 7.213-12.711 11.942-14.115 13.862-16.371 0 0-5.53-7.494-7.304-15.445-0.716-3.19-30.88 33.437-19.048 10.431 3.796-7.372 17.589-15.419 17.44-15.941-1.408-4.789-2.846-9.434-4.352-12.453-1.9-3.824-28.381-24.93-28.347-24.913 0 0.01 5.181 16.724 16.44 24.913 6.425 4.702 6.445 3.671 10.706 6.347-0.092 2.473-2.47 6.503-5.557 7.572-3.867 1.367-16.398-0.90999-16.398-0.90999 1.174 6.266-4.316 19.785-4.247 34.657-4.716-0.465-12.999-7.762-15.001-11.91-1.448-24.636-6.805-17.257-11.813-34.979-5.441 7.433 0.381 18.108-4.956 25.063-7.344 9.569-8.457 16.021-9.535 27.793 1.713 0.95301 9.206 9.23 2.385 26.599-1.113 27.301 11.082 37.733-10.731 56.831 1.839 0.591 3.156 14.269 3.156 14.289 16.065-8.572 12.883 9.919 19.139 13.545 9.94 5.774 8.138 11.748 3.677 19.198 28.421-8.084-1.285-27.508 11.578-27.933 9.332-0.28399 15.584 2.08 19.635 8.359 4.318 6.625-0.743 10.693 11.31 21.447 1.205 1.075 4.4 8.25-5.16 10.217-2.092 0.442 0.021 8.613 0.021 8.613-7.66-6.476-10.066-15.605-22.369-9.83-6.296 2.964-10.388 0.05-12.966-1.191 0 0-1.31 5.143 3.901 6.883 13.468 4.528 16.792 9.902 16.06 12.84-1.819 6.998-2.368 0-1.975 7.371 0.163 2.927 3.572 6.91 6.392 10.316 9.138 11.022 15.604 6.887 17.931 5.909 5.313 4.105 6.248 3.817 11.188 5.771 8.454 3.324 26.786-2.198 37.024-6.951 4.966-2.249 10.9-3.599 16.694-2.321-0.058-2.991-2.148-4.596-4.231-5.196-3.195-0.998-7.009 0-6.76-2.338 0.145-1.37 4.528-1.607 7.262-2.35 15.178-4.146 34.829-17.745 21.928-14.879-1.523 0.336 9.303-8.091 17.477-19.055l28.944-28.115c-1.333-1.599-11.48-0.153-43.625 29.97-4.567-4.078 39.097-36.99 57.12-71.92-1.554-1.089-24.018 7.093-32.119 15.445-12.484 12.911-26.82 45.735-32.715 40.929-0.709-0.269 23.726-38.317 35.799-60.886 6.096-11.419 11.113-27.779 11.523-40.11 1.941-60.781-7.215-56.114-7.208-56.123-14.238 47.913-20.9 103.54-41.678 129.21-8.301 10.255 22.203-44.898 23.519-94.62m-62.969-54.65c-6.425-5.638-10.618-7.64-9.22-4.844 1.56 3.124 2.72 5.774 3.596 8.105 0.291 0.77301 5.624-3.261 5.624-3.261m-4.219 7.548c1.424 5.112 1.427 8.631 2.088 13.132 0.292 1.933 0.336 1.703 0.428 3.328 0.031 0.539 13.926-11.561 14.702-12.057-3.487-4.365-6.471-5.929-9.797-9.03-2.354 2.036-7.55 4.132-7.421 4.627m45.121-15.462c-19.299-19.064-48.233-12.161-71.039-22.365-20.666-7.535-35.633-26.644-57.303-31.471-6.374-2.0598-7.423-5.2449-3.362-5.1367 2.378 0.0726 15.591-13.717 36.722-3.0902 7.056 3.5492 28.977 15.764 32.682 16.463-11.867-11.297-17.817-21.395-28.425-27.359-6.489-3.6399-32.923-13.107-59.294-7.9918-11.68 2.2789-20.673-8.4942-17.698-8.25 6.252 1.6687 13.267 0.8211 17.48-4.702 7.658-5.9949 18.74-13.467 28.279-2.3301 3.175 3.6871 18.308 11.553 32.536-2.8871-15.133 0.7942-13.63-26.427-42.302-23.231-10.615 0.075-34.069 24.354-40.746 16.85-11.854-13.318 25.463-25.958 9.303-42.706-14.591-15.13-32.03 12.046-32.03 12.046 9.109-3.823 25.916-6.273 18.514 8.5242-2.937 5.8758-8.523 11.165-8.523 22.037-1.279 5.4114-34.682-43.014-56.776-21.134-8.68 8.5929-26.261 27.448-42.188 34.619 42.175 3.5922 48.605-13.291 50.616-15.998 13.492-18.201 25.959 0.2851 28.832 3.521 4.395 5.0071 10.609 11.887 8.402 12.928-16.357 7.7578-35.046 9.4066-49.007 3.0019 29.888 41.085 53.144 2.6117 53.141 2.6188 3.277-2.0348-0.836 24.36-30.398 25.826-18.463 0.909-34.712-15.71-47.448-15.693-10.351 0.0168-41.74 21.219-49.119 40.043 18.261-13.664 41.56-21.507 56.077-12.85 27.297 16.273 61.676-8.2609 63.31-5.3332-7.63 5.9672-24.995 29.249-71.865 15.978-18.187-10.445-25.853 7.748-37.017 8.056 18.995 16.857 32.164 8.278 38.801 7.766 1.574 0-7.922 7.812-14.581 8.518-51.798 5.383-84.607 19.625-84.607 19.625-0.2679 0 4.3168 10.441 26.58 2.914 0 0-19.967 12.225-19.801 27.932 0.6493 9.682 5.336 20.052-2.0726 28.122 30.061 1.232 8.7086-40.687 29.815-51.492 0.451-0.173-6.2149 10.018 3.183 17.918 4.358-12.31 15.088-18.675 22.638-20.669 1.771 0.97 3.958 4.749 3.958 4.739-7.944 13.131-8.982 28.435-6.848 45.962l0.315 0.18099c1.71-0.082 4.604-6.032 6.632-10.398 4.383-9.427 4.279-22.993 13.015-34.174 4.835-6.16 7.834-12.311 12.173-15.296 1.871 4.369 0.485 11.87 0.197 13.868-0.986 7.12-5.45 19.59 6.721 30.605 5.695-16.432 13.434-11.666 14.486-19.55 1.452-11.038 0.97-9.285-0.156-17.758 0.577-11.681 11.193-14.968 20.614-22.434 21.249-11.557 35.352-17.82 44.598-32.628 4.517 24.989-62.923 29.982-54.227 78.194-0.903 19.257 2.399 20.873-11.248 32.631 27.059-0.79399 41.805-45.217 43.276-53.318 2.705-14.899 11.751-15.673 24.17-35.097 1.788-0.655-22.208 51.75 6.398 96.621 0 0 9.639-23.309 5.09-38.592-2.739-9.206-0.196-19.39 0.32-25.164 0.521-5.886-1.181 21.263 19.254 35.31 1.269-10.271 11.121-26.184 1.785-43.234-11.348-20.748-12.176-13.291-12.345-38.805 1.027 0.441 3.966 17.589 11.751 27.321 16.456 20.575 4.705 31.641 20.765 49.471 1.275-8.915 3.547-5.387 4.504-13.332 2.158-17.816-16.453-37.308-12.335-36.719 4.736 0.668 12.335 4.79 14.886 18.312 0 0 6.853-12.348 0.584-16.459-11.351-7.45-13.712-15.47-11.948-24.486 9.111 10.879 21.548 22.925 19.394 38.404 1.031 9.343 11.161 13.129 13.175 34.84 0.336 3.602 3.932 7.974 7.529 9.888-1.572-12.199 7.903-24.811-2.87-39.734 2.456-1.316 11.571 11.643 24.885 6.92-26.731-4.816-18.932-33.773-39.412-47.184-6.174-4.04-5.115-8.576-6.968-9.087 18.292 1.031 32.383 22.813 34.827 24.471 18.382 12.427 22.406 14.333 29.75 34.484 2.877 7.66 0.787 11.048 10.977 21.381 4.465-10.19-2.021-31.311-3.568-35.863-3.294-9.729-14.852-18.149-12.403-18.149 49.271 21.748 48.653 36.345 60.442 51.923 3.534 5.947 21.062 16.273 27.616 17.236-1.601-3.246-8.412-8.711-8.731-14.608-0.594-10.888-4.112-17.534-9.615-26.269 3.064-3.8 8.943 7.171 14.954 1.665-7.955-2.639-11.5-11.5-17.677-16.707m8.233 2.887c-2.932-14.364-7.884-27.661-16.52-40.026-6.049-8.766-8.505 8.278-3.298 24.774 7.398 2.951 14.791 8.684 19.818 15.252m-171.05 241.15v0.387c-6.187 0.895-11.035 5.218-16.694 7.358-7.831 2.961-16.129-3.08-16.129-4.044 0-2.106 2.223-3.185 8.556 0.797-4.961-5.743 0.673-10.41 0.673-10.41-2.059 0.308-5.005 0.997-6.884 2.072-0.382-2.072 2.472-2.833 3.835-3.735 10.503-4.312 17.409 5.791 26.643 7.575m-17.694-5.339s2.788 3.019 2.778 5.18c-7e-3 2.93-2.768 5.068-2.768 5.068 2.371-0.685 8.006-3.857 10.024-5.183l-10.034-5.065" display="inline" fill="#fff" filter="url(#filter1865)"/></g><g><g transform="matrix(.016667 0 0 -.016667 131.24 176.24)" fill="#fff"><path d="m4677.3 2671.5 102.65-167.3c56.67-89.86 129.52-206.23 155.41-254.94-198.92 65.92-371.45 433.91-398.58 508.63-33.58 92.29-191.15 407.35-275.19 462.21-1.14 0.93-2.28 0.52-3.49 0.79-2.23 21.28-5.97 40.62-11.94 54.52l-50.7 72.67-7.77 10.7 61.25 1.99c71.22-19.44 313.64-194.59 342.79-257.79 24.5-54.35 172.62-295.15 329.95-408.18-89.94 17.48-167.65 51.63-338.66 294.57-54.16 76.8-181.03 227.83-229.13 261.6l-10.85-10.52c47.77-75.99 307.31-517.29 334.26-568.95m267.89-443.19c-23.81-11.39-79.69-12.57-126.2 19.47-11.67 7.84-23.42 17.51-34.55 27.46-2.08 2.33-3.88 5.58-5.87 7.36-121.59 119.23-190.58 275.06-245.98 400.3l-62.87 131.47c-75.32 134.5-140.85 235.71-210.41 296.99 1.38 27.24 1.95 59.79 0.2 90.42 81.78-64.15 231.1-363.14 262.44-449.22 34.18-93.63 212.49-466.38 421.88-521.74 0.33-0.66 1.15-2.11 1.36-2.51m-104.05-304.42c0.22-7.23 0.48-14.55 0.48-21.97 0-117.58-21.45-218.79-57.41-282.54 17.29 120.62-16.43 401.38-118.18 708.91 25.07-26.97 59.2-57.48 95.15-84.24 46.68-66.22 76.95-185.15 79.96-320.16m-82.95-340.98c-1.69-2.09-3.34-4.41-5.3-6.13 0 0-9.71-11.09-12.39-14.2-0.21 4.1-0.51 9.03-0.51 9.03l-1.39 24.1c-5 92.69-17.78 338.57-129.18 762.24-34.51 130.78-144.5 366.03-242.51 553.99 37.31-54.01 69.08-102.69 75.8-116.88l12.33-30.96c24.44-65.14 76.8-200.83 149.23-321.93l31.97-78.23c0.55-0.53 0.97-0.95 1.09-1.44 132.13-379.14 153.77-711.56 120.86-779.59m-235.85 438.09c2.92-40.96 3.95-82.13 3.95-123.28 0-376.51-110.7-751.41-279.4-970.04 82.94 220.19 128.9 418.2 152.51 613.69 21.94 21.29 46.05 41.93 75.32 61.7l5.7 3.83-3.26 6.23c-8.56 17.58-36.59 22.77-68.33 22.77 8.41 92.01 12.51 184.03 14.44 278.67 12.05 19.18 24.59 37.6 39.12 54.75l14.23 12.5-3.49 0.16 0.33 0.6h-16.77c-9.03 0-20.7-0.97-33.18-2.44-5.18 343.9-122.02 903.17-177.8 1014.1-4.67 37.73-20.23 60.82-34.22 79.93 0 0-3.61 5.46-5.72 9.65 12.37-9.29 25.65-21.16 33.27-33.89l10.56-17.48 0.15 0.33c90.51-148.04 236.24-464.95 272.59-1011.8m-305.84-1129.5c-33.34-38.3-68.66-71.269-105.83-96.109-13.16-8.891-20.34-9.32-21.75-8.891 1.41 0 7.57 11.27 7.57 11.27 30.19 38.879 209.05 407.5 227.35 665.27l26 27.05c10.4 11.35 20.72 21.9 31.05 32.6-25.89-200.2-74.14-402.77-164.39-631.19m93.59 731.46c3.35 12.15 8.35 28.25 8.35 28.25 16.88 61.07 42.2 152.71 88.44 235.97-2.18-85.21-6.52-168.61-13.87-251.56-31.56-1.47-64.02-7.6-82.92-12.66m35 341.76c-0.97 179.95-80.18 745.12-121.45 854.23 1.52 5.58 3.11 10.88 4.68 16.91l3.1 11.28 4.49 33.48 4.65 33.37c3.01 14.05 4.58 26.46 5.72 38.25 58.71-162.67 157.16-659.46 161.44-973.89-19.59-2.65-41.12-7.14-62.63-13.63m-44.85-16.89c-12.15-5.94-23.97-12.21-33.82-19.69-217.2 198.06-574.73 751.14-630.91 977.87 0.56 29.92 5.3 116.82 14.23 134.48 7.35 4.01 30.86-22.25 42.18-34.51l23.28-19.54c3.49-9.1 7.41-18.83 11.21-28.35 82.71-313.23 364.73-780.08 572.61-939.61 1.46-29.54 2.08-53.17 1.22-70.65m-57.57-41.66s-4.1-5.51-10.43-14.14c-275.19 217.74-561.11 606.71-683.18 932.35 20.11 26.4 38.59 59.16 44.01 94.89 9.16-7.69 18.86-15.95 28.63-25.77l0.97-1.16c64.2-233.94 415.85-776.78 631.69-974.73-3.92-3.69-8.65-7.38-11.69-11.44m-66.8-88.34c-25.34 41.32-71.13 93.65-102.96 119.98l-6.39 5.09c-24.11 31.57-48.65 64.42-70.95 95.47 72.64-71.11 166.4-145.5 203.69-174.94l6.76-5.58c-12.01-16.06-23.94-31.8-30.15-40.02m-106.15-81.39c-338.49 227.54-634.95 739.81-717.83 947.18l33.72 75.8c5.01 12.31 8.89 14.17 9.79 14.32 0.45 0.19 1.88-0.9 3.14-1.78 107.18-306.01 406.48-780.25 673.17-996.13 0-13.16-0.82-26.46-1.99-39.39m-10.98-63.75c-4.16-14.1-11.82-31.35-21.76-50.18-58.95 57-171.92 195.82-272.16 327.15 98.61-105.35 201.78-194.43 297.72-257.24-1.32-6.53-2.02-13.69-3.8-19.73m-58.55-109.43c-52.01 37.61-129.41 105.33-168.86 141.15-2.37 22.58-3.86 44.57-3.86 64.14 0 27.25 1.57 50.18 3.71 69.43 77.55-97.95 152.51-186.93 197.9-229.37-8.74-14.98-18.26-30.08-28.89-45.35m-165.57 72.28c0.3 4.96 1.08 10.08 1.08 15.12 0 8.22-0.24 16.46-1.08 24.78-0.13 1.68-0.13 3.13-0.52 5.02 41.3-37.14 107-93.69 154-127.85-38.7 17.46-118.34 60.37-153.48 82.93m74.36-162.6s-22.89-10.95-49.28-23.8c-0.72 25.52-22.07 48.8-44.38 69 4.74 18.38 8.63 36.82 11.95 54.78 24.95-15.93 61.54-36.97 61.54-36.97l58.51-33.67c-12.7-11.78-25.86-22.09-38.34-29.34m-122.49-58.92c4.21 14.63 9.27 32.83 9.27 32.83 5.16 18.2 10.4 36.11 15.26 54.04 20.16-18.84 38.19-40.02 32.94-59.16-22.24-10.8-44.67-21.68-57.47-27.71m-43.41 391.83c-202.7 218.26-427.46 617.24-476.35 774.84l-4.42 13.18-9.96 52.44 22.01 27.76 17.9 28.48c11.03 16.85 16.28 16.16 16.28 16.16 5.24-0.63 15.31-31.71 15.31-31.71 44.7-179.68 150.28-372.19 279.65-545.14 50.75-72.84 133.22-183.72 215.45-288.25-30.38-13.91-55.1-27.89-75.87-47.76m-495.58 783.07 4.13-12.96c49.55-159.14 276.88-563.03 481.35-782.43-16.27-18.2-30.74-39.63-43.46-70.31l-1.33-5.53c-296.13 299.46-431.01 551.53-522.85 983.56 9.44 6.96 18.84 14.02 27.4 19.99l28.38 20.79c13.28 10.01 17.73 8.68 17.73 8.68 3.38-2.56 2.23-18.98-3.8-48.91-0.09 0-3.5-3.98-3.5-18.72-0.78-8.5-0.78-11.78-0.42-14.58l-0.2-13.27c0-17.39 5.39-33.19 5.39-33.19m429.05-988.88c-1.53-5.94-2.98-12.19-4.42-18.18-80.36 77.57-199.17 257.57-272.18 408.61 76.56-114.53 170.72-225.18 289.05-343.93zm-21.18-87.44c-87.89 79.72-172.23 184.06-252.13 307.61l-4.79 8.56 6.27 4.45-12.9 23.62-7.42 15.27-12.84-1.41-5.97 8.38c-144.67 238.68-250.89 508.11-276.39 711.62 8.32 13.95 24.24 27.34 46.6 45.24 54.71-219.87 119.78-403.55 210.83-563.42 63.84-172.11 227.51-422.09 321.09-508.87-4.33-17.48-7.96-35.54-12.35-51.05m-19.3-50.16c-13.92 6.72-32.49 21.7-49.55 35.45l-41.53 31.6c-23.09 14.36-124.79 118.85-164.33 179.04-8.77 47.84-10.07 90.59-5.37 103.09 2.72 7.21 4.95 10.76 6.91 12.6 83.16-129.4 175.46-244.92 267.35-326.92-4.61-14.16-9.32-26.6-13.48-34.86m-344.77-170.06c-27.94-66.58-66.47-110.31-103.42-147.71 33.52 54.22 69.54 114.86 98.32 163.47l43.83 73.46c30.92 49.4 106.45 112.7 154.98 133.24 1.81-2.24 3.49-4.57 4.76-6.19-121.31-97.75-170.84-151.4-198.47-216.27m113.29 255.96s-14.88-7.81-27.15-14.32c0.69 16.66 2.62 51.72 4.19 94.55 10.19-13.02 18.32-19.35 18.32-19.35s29.42-34.96 37.74-44.88c-10.16-5.28-33.1-16-33.1-16m-117.34 297.81c-56.09 102.74-126.43 280.78-188.85 444.41l-14.92-4.97 156.06-548.83c-5.85-34.06-7.59-65.33-7.59-85.49l-8.2-84.84c-33.82 29.47-82.07 87.79-112.25 132.16-40.53 59.14-89.69 145.88-101.33 189.71l-20.35 69.47c26.62 35.2 57.79 98.08 49.28 158.76-6.86 47.35-21.9 78.99-39.3 103.38l21.7 63.41c4.67 38.37 11.63 103.42-10.73 165.39 7.18 25.04 12.24 55.76 12.24 85.93 0 27.58-3.92 54.47-13.66 76.25 0 0-6.9 10.07-16 23.1 12.84 25.83 22.58 44.54 30.68 45.84 3.8 0.69 10.01-2.62 18.33-10.4 13.05-11.72 22.48-36.38 31.14-80.15l4.18-22.75c26.47-201.22 135.58-466.76 275.8-696.88-20.32-2.66-45.58-8.42-66.23-23.5m-176.05-545.33s-0.97-1.15-2.17-3.16l0.97 38.12-6.33 34.24c-14.32 46.25-44.49 106.76-54.37 121.07l-4.65 6.53-6.27-4.32c-5-3.5-11.39-10.98-12.05-11.7-0.61-0.9-1.81-2.83-2.78-3.9v-0.22c-28.09-35.94-64.44-114.8-72.52-172.5-3.04-22.6-8.01-55.86-14.8-90.62-16.9 62.55-40.65 122.53-56.6 143.04l-6.17 7.89-6.27-8.04c-10.79-14.65-17.97-25.47-19.78-37.47-23.57-53.69-33.73-113.86-26.58-168.37 8.02-60.06-7.24-87.04-36.45-113.21-0.24-0.43-12.38-14.22-26.73-33.73l25.8 127.44 36.65 118.81c32.64 92.39 71.86 204.61 68.06 286.23 29.06 35.14 43.65 90.06 47.68 108.5l5.24 29.02c5.55 32.72 11.04 63.28 29.37 92.76l17.9 33.96s0.45 0.84 2.11 4.49c5-8.2 13.02-21.46 22.06-37.22 14.47-24.42 32.01-48.32 32.01-48.32 10.88-16.98 31.41-46.39 56.04-77.82-19.2-43.77-19.69-109.23 0.23-177.87 26.2-91.27 30.48-117.36 10.4-163.63m-274.34 492.17c-1.69 31.74 0.66 62.46 0.66 62.46l-15.25 3.01c-13.98-36.45-65.02-120.41-90.66-144.83l-73.66-67.52c6.5 68.07-1.91 125.51-10.01 176.27l-7.05 46.94c-5.49 46.19-24.6 95.68-43.83 141.2 13.56 12.21 26.04 28.72 30.47 38.13 0 0 6.79 14.23 11.81 32.34 3.83 13.02 5.52 28.85 8.84 39.6 16.36-26.13 44.54-85.2 51.51-110.95 0-0.17 2.86-21.97 2.86-21.97l4.1-20.79 12.18-22.19 8.65 9.76 41.08 73.7 57.81 103.99c13.8-8.23 66.62-54.65 89.01-88.46 3.58-21.86 8.77-44.55 17.45-71.38l6.69-19.98c11.51-36.09 20.95-65.41 20.95-90.21 0-14.3-8.35-25.68-15.89-37.74-1.75 5.3-19.35 58.15-19.35 58.15l-15.01-2.7-0.54-54.04-4.82-111.13c-6.09-42.74-20.29-69.75-33.45-88.89l-13.21 39.65-9.68 26.97-4.36 26.23c0 0.18-5.65 38.15-7.3 74.38m-216.96-745.04c0.1-1.72 0.19-4.81 0.72-6.86-9.76 22.15-19.22 42.44-25.06 51.76-97.56 156.13-104.95 186.04-140.19 329.42l-2.71 10.95c-11.58 48.05-16.36 92.97-16.36 133.95 0 87.6 20.8 156.72 37 197.13l27.54 71.56s49.86 112.19 61.62 138.01c38.24-87.95 47.44-146.21 47.44-304.57 0-78.52-2.65-94.32-21.82-196.86l-9.77-53.44c-5.49-30.11-7.77-59.35-7.77-87.44 0-77.24 17.29-146.5 32.01-204.92zm-239.31 380.1c-3.83 15.13-5.16 28.79-5.16 40.95 0 22.76 5.16 40.82 9.6 55.1 0 0 0.47 2.09 1.21 4.38l4.25-1.29c0.81-10.41 1.91-21.12 5.19-35.43 0 0 23.8-103.5 36.2-159.32-17.15 21.08-38.98 49.71-51.29 95.61m-54.55 171.89c-6.8 33.13-20.14 105.2-4.19 146.88 5.72-10.86 11.12-24.44 15.4-45.04l12.14-40.12 9.61-36.68 9.92 2.97 18.88 9.22c0-1.21-0.55-2.11-0.55-3.5l-0.54-12.81c-0.72-13.32-0.88-24.26-1.21-35.12l-37.48 8.71zm-34.28 8.28-22.93 5.59-33.12 6.23c11.76 32.11 38.83 107.03 38.83 107.03l19.99 58.96c3.04-5.7 5.51-10.52 5.51-10.52-27.88-57.29-18.84-119.65-8.28-167.29m-103.76 20.12-12.13 2.11c-13.58 3.22-27.69 25.82-41.58 47.46l-27.72 36.82c23.39 63.82 53.18 195.23 72.01 307.51 6.33-37.58 28.95-130.29 54.75-169.74l10.87-16.23 15.49-46.02c-19.29-59.68-45.65-127.26-71.69-161.91m-113.09 116.54-74.47 59.36c55.24 134.94 74.72 227.59 94.06 324.31l11.02 51.24c10.56-29.54 24.15-53.44 34.64-71.58l13.95-27.04c0.33-0.9 1.26-1.15 1.86-1.81-17.42-111.61-47.33-258.31-81.06-334.48m-107.1 85.43c-5.46 5.02-13.4 13.93-22.07 23.81 77.17 136.87 136.8 537.32 159.78 714.49 5.35 27.61 8.98 50.96 10.81 67.06l0.55 5.13v0.15c27.16 14.68 57.32 39.57 77.82 58.14l-3.99-59.26c-24.38-20.04-60.9-65.1-65.34-159.08l-3.09-21.28 3.43-30.47c-1.61-1.48-3.67-2.53-4.64-4.65-37.61-89.45-37.37-158.69-24.74-212.55l-17.17-80.12c-19.29-94.91-38.38-186.11-91.66-317.13zm-46.51 53.44c-5.86 7.27-11.66 14.34-17.07 21.09 30.09 53.23 61.7 137.21 91.2 230.7-22.53-101.76-48.18-192.96-74.13-251.79m-40.49 52.23c-2.6 3.82-4.77 7.03-5.63 8.2l-6.6 13.89-7.21-13.77c-8.1-15.34-13.26-40-12.3-72.09l-7.31-13.99c-14.85-27.91-36.2-67.01-57.72-90.25-9.04 10.58-19.6 19.08-30.7 26.8 129.68 201.13 228.46 538.13 260.67 726.91 11.17 4.73 22.78 11.52 34.05 17.93l14.44 8.6c1.91 0.93 3.52 2.53 5.41 4.28-1.58-11.49-3.04-22.89-4.77-34.67-40.23-205.41-123.01-465.85-182.33-581.84m11.04-252.64 7.92 12.54c7.33-16.27 15.11-31.8 22.94-46.68l-22.84-35.39-33.91-53.3c-3.4 22.05-8.09 43.69-14.3 65.25zm74.3-110.63-16.98-25.37c-20.5-32.4-49.3-74.9-72.87-93.86-1.26 26.44-3.09 54.53-6.77 83l43.34 68.83 18.18 27.91c12.87-23.51 24.54-43.53 35.1-60.51m28.48-59.66c-1.02 6.77-11.18-17.52-11.18-17.52l-20.65-64.38c-0.86-10.15-1.91-23.18-1.91-37.07 0-9.55 1.67-18.79 2.94-28.3-11.9 35.84-17.23 68.77-19.11 98.34l14.11 19.41 32.16 40.18zm17.06-45.12c5.01-15.98 11.22-36.45 11.22-36.45l13.57-47.5c1.12-3.75 4.69-9.59 7.07-14.62-13.98-10-29.6-21.49-38.73-17.78-5.9 2.13-8.59 11.1-9.86 18.36-1.35 8.85-1.91 17.38-1.91 25.49 0 32.13 9.86 55.53 18.64 72.5m118.27-219.77c41.52-41.68 237.61-148.26 267.44-163.24 24.6-12.17 51.37-37.85 73.13-64.37-33.9 27.98-69.45 51.73-107.01 65.07l-23.73 8.07c-80.25 27.62-268.55 91.72-323.8 168.85-14.76 20.23-19.05 37.4-28.33 56.01 9.74-6.46 21.05-10.31 35.89-7.53 0 0 24.45 15.03 39.35 24.04 19.08-30.26 43.97-64.28 67.06-86.9m-292.39 422.37c-8.99 24.29-19.4 47.69-32.33 68.84l48.44 66.86 4.09 6.54c3.68-15.91 7.57-32.38 13.93-50.35 2.84-7.28 6.26-14.43 9.11-21.7-3.1-6.21-6.57-12.99-6.57-12.99zm-97.82 132.42c-10.05 5.33-21.01 9.43-32.88 12.38 102.67 232.05 179.83 555.35 195.7 682.75l48.33 11.88 23.97 8.37c6.6-3.25 14.2-3.01 22.07-1.63-33.11-188.82-130.03-517.15-257.19-713.75m-54.75-172.77-52.73-55.43-23.67-20.8-15.29 35.05c27.77 28.93 70.54 85.47 97.55 123.3 0.47-26.85-1.42-54.64-5.86-82.12m-23.03-107.04-3.34-13.08c-2.15-9.01-3.56-28.19-2.21-50.43l-19.85 28.79-11.19 26.01 6.89 5.78c11.52 9.05 24.21 19.36 36.67 31.39-2.36-9.69-4.83-20.08-6.97-28.46m-77.81 87.47c35.18 37.46 69.55 92.87 101.92 159.33 1.29-6.66 2.62-15.29 4.39-27.79 0.09-1.06-0.26-2.29 0-3.2-22.63-32.35-72.01-99.46-103.84-134.03zm-17.21 39.82-26.03 60.92c77.93 76.52 152.02 198.16 213.13 328.28-28.18-77.07-58.89-152.42-90.74-219.73-0.41-0.13-0.78 0-1.34 0l-21.3-0.72 16.15-12.95c-29.63-61.35-59.95-114.75-89.87-155.8m-75.01 162.34c131.29 156.06 310.94 616.62 329.67 752.25 0 1.33-0.56 2.2-1.11 3.34 3.64 2.36 7.77 4.11 10.71 6.67l17.06 14.74c16.9 14.77 22.53 18.29 39.84 16.21 2.89-12.48-2.06-42.79-5.86-66.22l-1.91-12.8c-1.36-3.2-2.07-6.37-2.63-9.87-19.28-178.84-189.16-628.97-352.37-769.61-1.42 3.46-14.05 32.4-33.4 65.29m-8.89 13.79c-5.09 8.05-11.14 16.02-17 24.16 127.26 138.52 260.93 522.82 285.92 691.25 17.07 2.34 34.86 7.32 52.23 16-24.05-142.78-194.4-576.8-321.15-731.41m-65.8 71.14-1.66 0.91c89.04 110.08 164.29 233.38 225.73 368.89-55.33-158.35-130.79-325-198.92-389.63-8.18 7.56-16.6 14.47-25.15 19.83m-86.2-373.6c1.82 1 4.81 2.77 4.81 2.77s52.8 29.75 64.31 36.12c9.21-28.07 26.68-103.05 28.4-139.73-29.9 10.12-84.03 79.02-97.52 100.84m-24.63 71.56-6.52-3.34c-9.43-5.29-34.14-30.48-46.81-64.78-0.16 0-17.49-34.69-27.01-53.71-9.51 15.97-16.57 40.04-22.14 65.04 58.29 41.31 134.39 105.29 190.43 160.27 0.26-15.53 0.26-30.66 0.56-45.94l0.56-41.01c-5.71-5.96-41.82-24.61-61.29-34.59 0 0-6.27-3.34-11.33-6.12-0.89 1.23-16.45 24.18-16.45 24.18m-110.55-16.36c49.5 27.24 147.46 122.18 197.95 180.62v-6.74c0-10.47 0.16-21.7 0.22-32.61-54.21-54.42-132.87-121.08-193.84-164.67-1.56 7.91-3.17 15.68-4.33 23.4m-6.36 39.45-2.94 20.37c-0.95 4.81-2.47 13.52-4.69 23.58 81.11 65.76 154.17 139.43 220.83 219.49-4.39-16.19-6.98-41.31-8.08-72.78-40.58-52.5-135.59-149.98-205.12-191.71zm-46.36 160.64c220.83 186.94 420.15 551.62 468.64 777.13 26.85 3.17 71.05 12.54 102.96 23.96-94.08-347.25-294.32-670.97-543.02-876.01-6.93 23.42-16.3 49.77-28.58 74.92m-11.42 21.98c116.98 130.39 182.93 218.73 273.91 403.17 65.75 132.97 99.95 240.13 124.95 342.37l64.84 6.66c-50.39-222.05-250.33-581-459.45-760.07-1.72 2.36-2.78 5.37-4.25 7.87m-26.14 35.27c-6.11 6.84-12.48 13.54-19.6 18.97-1.43 1.23-2.85 2.3-4.29 3.3 51.2 55.37 196.84 224.03 272.74 373.29 32.96 64.63 80.83 163.62 120.6 265.07-30.2-103.17-64.71-197.94-102.81-274.74-72.88-147.63-154.48-255.5-266.64-385.89m-55.65 43.52c-14.76 7.71-29.91 12.09-50.625 10.41l-3.972-0.61c209.63 251.58 351.17 582.41 375.36 754.66l-4.9 0.48 2.13 0.43c29.54 7.17 82.4 22.67 130.73 39.57-28.97-97.93-121.19-335.28-177.39-437.37-80.4-145.98-147.57-230.55-271.33-367.57m-21.83-443.19c-38.736-4.88-49.197 1.47-50.795 6.29-0.226 0.55-0.226 0.94-0.226 1.45 0 8.26 23.32 23.16 35.571 30.72 0.44-1.93 10.37-25.96 15.45-38.46m42.01-66.64c-4.62 0.8-54.63-12.21-84.469-20.04l-51.367-14.63c-0.457-0.21-0.457-0.45-0.554-0.45l-30.801 157.8c52.773 30.54 80.644 40.08 94.883 41.35 1.503-8.17 3.386-16.33 5.156-23.25-36.367-19.86-57.981-37.07-62.969-55.21l-1.262-7.83 0.395-9.48 3.172-10.7 6.269-12.28c18.086-26.02 91.597-20.18 107.56-18.74-0.39-0.29-0.7-0.29-0.7-0.72 0-4.61 14.69-25.82 14.69-25.82m-35.49-489.47c-319.27 518.5-326.33 1211.3-228.06 1678.4l23.649 47.87 16.516 39.18c27.957 68.3 74.57 182.39 118.2 238.18 53.887 69.41 64.037 108.56 64.037 134.85 0 8.8-0.91 16.01-1.88 22.51l-1.11 15.04c0.46 2.8 0.62 5.67 0.62 8.26 0 8.5-2.37 15.17-7.28 18.81l-3.59 2.66-9.684-0.97c-6.106-2.93-10.148-10.22-10.703-20.14-0.879-9.91-5.805-61.34-30.656-99.91l-48.946-50.25-58.523-40.24c-2.063-1.86-5-4.28-7.563-6.3 0 36.15 12.246 76.16 24.848 112.94 0.184 0.54 0.562 1 0.953 1.72 29.387 46.45 51.059 93.28 59.231 115.31l29.05 5.68s69.623 25.05 69.923 25.34c0.97-13.65 5.35-67.18 5.35-67.18l14.35 4.91 87.32 38.19 21.26 19.89 39.94 28.64c1.18-13.56-2.56-24.45-16.75-58.5-2.78-36.75-14.29-73.67-19.76-78.01 3.89 0.78-7.23 52.12-7.23 52.12l-7.3 36.58-9.45-18.2-6.12-10.85-4.45-12.88-2.77-30.88v-24.78l-16.66-62.45c-1.12-2.6-70.66-132.66-70.66-132.66-1.41-2.16-137.1-208.24-188.1-481.34-24.797-134.86-37.078-267.92-37.078-405.56 0-109.16 7.687-221.32 23.328-339.02 45.164-338.87 131.77-557.4 195.75-706.99m34.29-81.879c7.68-19.801 14.59-39.203 14.59-47.184 0-0.976-0.2-1.918-0.55-2.5-1.73 1.524-16.26 8.532-68.89 57.481-138.11 128-243.06 436.83-271.73 545.02-93.18 348.86-63.824 817.98-23.391 1031.5l59.196 114.53c-90.649-491.33-63.989-1190.4 290.78-1698.9m-534.15 1317.8-56.7-156.99c-47.832-127.84-107.21-286.68-116.36-353.46-3.074-20.96-11.57-37.62-24.535-47.03l-11.664-3.23c81.046 514.84 384.13 1010 536.15 1232.6-34.398-65.59-75.813-151.31-109.89-222.11l-46.508-95.03c0-0.07-170.5-354.74-170.5-354.74m-224.01-424.05c21.172 151.53 57.308 284.89 110.64 410.07v-0.15c61.614 143.38 173.31 359.55 284.57 518.72 56.204 80.97 98.114 134.25 143.67 177.24-153.02-223.56-459.41-723.26-540.16-1243.4-7.156 10.26-11.258 51.31 1.266 137.48m81.605 633.78c-3.023-2.89-18.023-16.61-18.023-16.61-46.356-42.65-116.45-107.12-212.9-136.75-15.398-4.67-44.289 1.84-56.601 18.59 195.99 123.04 482.87 394.07 697.75 704.73 7.867 5.7 15.34 12.6 22.648 20.25-0.39-29.68-5.179-60.57-26.539-97.32-45.086-49.55-92.715-113.56-116.26-149.56l-41.356-64.29c-62.719-92.53-150.99-191.67-248.71-279.04m-232.4-38.53c110.45 83.5 275.28 238.72 327.74 302.59l83.73 92.53 42.782 46.63h-0.946c13.664 14.26 30.489 32.65 30.489 32.65 48.976 53.49 94.941 104.1 110.24 114.98 6.148 0.24 12.25 1.45 18.023 3.35-210.58-296.8-482.87-553.72-672.25-673.38-1.0547 21.64 18.731 49.28 60.192 80.65m306.29 435.45c-153.92-70.02-354.82-122.76-399.41-91.38 203.83 64.95 518.98 250.1 662.25 391.86 0.39 0.15-0.165 0.57 0 0.93 29.839 14.11 60.855 32.65 86.043 60.13l9.597 10.55h-0.152c13.89 11.97 31.363 28.69 31.363 28.69 10.547 10.01 21.817 20.84 32.93 31.57-8.985-23.61-13.821-43.89-11.113-57.63l1.21-6.43 17.122-0.39c-82.153-143.74-136.69-176.08-168.36-176.08l-6.59 2.35c-6.187 7.08-3.113 29-1.199 43.65l3.027 40.03-13.261-9.71c-21.883-13.48-22.383-38.7-22.848-62.9-0.402-22.1-0.965-44.91-15.809-61.89l-89.379-71.1-24.449-16.49s-60.023-36.77-90.976-55.76m-403-65.13c2.4765 6.51 6.6797 10.64 12.48 12.2l116.19 43.47h0.554l0.969 0.69 183.98 96.21 256.63 175.66c0.243 0 30.008 12.36 30.008 12.36 6.508 2.11 14.676 4.94 22.399 7.96-152.59-135.97-436.45-300.26-625.43-359.91 0.2383 3.58 0.6133 7.56 2.211 11.36m497.72 504.58c5.621 0.94 28.742 47.17 28.742 47.17l21.879 34.25 18.972 34.72c18.282 12.18 32.883 22.63 40.66 30.62 14.68 15.43 25.457 19.17 30.25 17.69 5.063-1.77 6.872-9.76 7.622-14.68l4.191-26.51 7.223-13.39 12.156-12.21c8.098-8.71 10.16-11.93 9.605-14.79-0.953-7.24-14.785-18.69-40.797-34.45l-44.851-27.92-8.742-6.09c-21.91-7.38-76.45-16.4-86.91-14.41m-64.379-86.83c-43.981-13.44-169.32-41.9-275.22-43.92l-10.809-0.42c-2.918 0-7.273-0.41-12.371-0.41 91.856 18.38 219.73 63.11 302.9 120.16-4.836-12.05-8.801-27.48-8.184-32.85 6.301-6.72 97.809-1.87 97.809-1.87s9.148 0.28 17.875 0.28c-32.782-13.9-93.274-35.15-112-40.97m-336.63-36.02c9.492 7.78 37.207 16.6 54.097 21.43l32.317 10.92 31.047 13.74 102.07 49.64 11.195 5.43 15.407 8.62 42.074 23.42c27.535 15.28 58.426 32.34 88.476 49.55-2.773-5.66-4.652-9.47-4.652-9.47-6.105-11.3-11.262-21.46-15.965-30.71-80.789-65.86-244.71-126.26-355-142.09-0.453 0-0.453-0.48-1.066-0.48m487.92-1.08c-3.481 4.49 9.543 32.82 9.543 32.82l5.617 12.38 4.355 17.58 13.731 26.01 15.644 14.95c38.125 36.11 66.7 60.23 87.575 38.28 0.058 0 13.875-12.42 13.875-12.42 7.781-6.56 12.226-10.61 12.226-14.74 0.258-10.54-24.129-32.79-42.316-48.37l-12.766-8.44zm653.93-23.82c8.49 3.65 20.49 8.39 27.88 11.56-1.36-8.36-3.28-21.62-4.54-32.35h-0.41l-0.62-7.08v-0.16c-0.64-5.3-1.11-9.01-1.11-9.01h0.47c-2.78-43.58-3.49-102.41 0.8-132.4-19.54-125.67-102.56-368.23-162.49-511.52-80.73-192.61-199.5-382.22-293.86-472.28-0.324 9.36-0.468 18.54-0.878 27.6 203.06 187.87 418.95 655.42 434.76 1125.6m-124.79-76.22c33.43 54.55 56.77 96.78 57.72 118.99v44.04c-1.21 30.23-2.07 50.34 14.45 79.51l1.1 1.69c6.36 4.74 12.54 9.65 18.84 14.92-17.96-43.52-26.3-105.89-10.44-186.9-5.61-404.61-206.76-885.27-393.23-1073.8-0.32 24.55-0.164 48.31 0.293 71.8 198 234.85 301.34 744.48 311.27 929.75m-291.42-726.15 8.418 45.54c22.383 124.3 41.528 219.97 89.641 335.77l-15.156-83.92-9.285-44.9c-6.614-34.21-52.004-188.17-73.618-252.49m2.258-102.06c14.5 29.02 94.043 246.58 105 297.31 0 0.06 6.445 27.22 6.445 27.22 15.865 66.37 50.065 208.78 49.185 285.16l91.16 158.42c7.21 11.16 12.93 21.01 19.6 31.41-17.78-198.99-114.94-650.38-293.09-876.08 0.5 15.91 1.445 30.72 2.559 45.76 7.988 9.79 14.355 20.49 19.14 30.8m-12.805-361.52c-0.378 0-0.378-0.2-0.71-0.63-0.313 4.5-0.469 8.68-0.879 13.27 41.523 37.95 81.308 80 118.84 124.96l-0.16-57.78c-33.179-30.11-75-59.04-117.09-79.82m6.36-88.96c-0.781 10.09-1.738 19.8-2.442 30.37 31.25 19.92 84.844 60.37 112.62 82.11 0-9.32-0.149-22.93-0.149-39.09-26.609-25.13-81.219-65.56-110.03-73.39m109.56-12.52c0-21.12-0.183-37.21-0.183-37.64 0-8.32 0.488-15.53 0.801-22.76-12.317-10.01-40.254-26.11-71.446-35.83-10.215-3.33-19.199-4.83-26.972-5.65-1.828 14.96-3.653 32.21-5.657 51.43 27.329 19.76 77.407 48.22 103.46 50.45m380.62 1077.6-16.85-83.76c-27.93-198.81-214.48-608-482.45-859.31-0.586 8.94-1.192 17.69-1.59 26.85 139.38 135.78 264.01 361.9 330.52 520.35 54.93 131.36 143.37 369.92 161.4 508.17 4.94 2.3 8.97 3.99 8.97 3.99s15.06 7.17 23.33 10.99c0.16-0.92 0.26-1.72 0.26-2.7 0-21.68-6.7-47.38-13.83-74.12zm116.86 18.36-7.56-6.82-34.05-28.2s-13.73-4.35-24.94-7.9c2.62 10.49 5.34 22 5.34 22l7.38 27.16 11.37 4.58 29.18 14.56 9.75-1.48 2.63-21.71c0-0.99 0.8-1.53 0.9-2.19m118.73-27.58c4.14-15.82 4.6-42.08-7.87-63.2l-6.66-11.34 13.17-0.57c9.45-0.4 20.64 2.56 32.16 7.17-9.45-21.04-27.56-43.58-38.82-50.63-12.37-7.63-36.98-11.97-59.45-13.45 7.38 31.59 14.04 62.69 20.87 94.49l6.36 29.54c0.3 0.61 0.3 2.56 0.3 3.89 2.82 0.99 5.09 2.08 7.22 3.32 9.8 3.1 19.4 7.44 28.2 14.43-2.39-0.09 4.52-13.65 4.52-13.65m112.56-79.15 13.89 5.27c-6.21-12.02-13.73-22.09-23.33-27.88-15.4-8.91-34.69-15.18-59.69-19.92 0.65 1 1.65 2.38 2.21 3.11l6.57 9.18c12.79 16.01 22.42 51.22 26.13 70.75 16.45 12.39 31.5 25.89 42.25 38.16 0.15-3.32 0.95-7.51 0.95-11.03 0-22.79-5.1-40.15-15.56-55.13l-14.77-21.31zm111.29 35.68c0.08 0.16 0 0.16 0.17 0.39v-0.39zm-6.51-16.81 8.1 1.11c6.29 0.82 15.08 3.16 25.14 6.51l-2.73-20.7c-1.77-3.35-2.63-7.18-2.63-11.25-14.78-15.21-39.93-36.62-66.76-48.67-0.15 0-30.09-4.32-30.09-4.32l-3.59 0.16v0.23c3.18 12.12 6.92 23.82 10.1 36.03 2.68 4.91 5.61 10.33 9.04 16.63l8.89 19.44 5.86 10.76 28.37 9.65c0.06 0 10.3-1.6 10.95-1.6-1.04 0-1.21-3.05-1.21-4.58 0-0.78 0.56-9.4 0.56-9.4m78.18 25.29c23.6 10.24 45.57 20.85 56.21 26.06 1.05-2.86 2.22-5.99 2.22-5.99l9.38-14.16-11.05-16.86c-16.35-13.53-40.14-27.13-57.22-27.13-3.65 0.25-4.18 0-4.18-0.29 0 0.54 5.14 31.77 5.14 31.77 0.16 1.56 0.3 3.16 0.3 4.72 0 0.73-0.8 1.12-0.8 1.88m145.68-32.5-6.52 6.51-12.37-8.92-37.31-52.66c-10.39-17.63-30.89-28.69-44.14-33.75-0.39 2.89-1.92 24.14-1.92 24.14 0 26.52 23.03 44.52 43.35 60.2l25.73 23.92c1.49 1.81 1.49 4.02 2.13 5.97 13.9 4.94 27.63 11.37 37.96 21.38 2.21-5.29 9.37-25.38 15.62-41.97-12.77-35.77-28.42-62.69-61.51-80.1 9.54 18.4 25.8 44.03 34.14 51.99 6.11 6.23 8.19 11.57 8.19 15.52 0 4.3-2.47 6.84-3.35 7.77m-778 789.39s1.49 8.57 1.35 8.57c-1.18 0.69-2.08 1.83-3.24 3.07l-4.24 3.01c-3.56 2.42-9.6-5.63-9.6-5.63l-27.39-28.45c-10.85-32.41-34.93-52.75-55.4-62.52-17.06-8.02-30.8-8.89-37.15-6.06 0 0-3.9 0.4-6.18 2.9-1.91 1.9-2.55 6.2-2.55 6.2-4.45 15.1 12.31 42.75 25.71 64.75l20.89 42.2 3.8 20.82-16.67-13.62c-64.54-56.51-76.76-47.32-103.59-27.31-4.03 3.05-5.86 6.87-5.48 12.42 1.51 27.07 49.87 71.04 57.16 75.08 31.69 16.67 68.01 24.35 84.38 17.75 13.58-5.48 12.22-18.29 8.48-37.44-2.38-11.41-4.19-21.18 1.92-27.45l3.09-2.8 11.75-0.46c20.66 3.98 88.99 43.1 112.27 96.24l2.42 5.22v0.15l3.93 10.58 2.13 10.52-2.88 41.32-12.84-24.29-18.36-31.14-6.01-11.97c-20.32-24.38-35.42-38.3-46.43-39.96l-9.84 2.8c0 0.12-4.78 6.21 1.68 43.53v0.05l14.02 65.32 3.74 16.25-14.53 5.27c-26.67-46.62-50.86-70.32-78.6-77.22l3.51 7.78c29.03 30.5 26.86 37.31 25.86 40.24-10.07 6.84-17.94 8.61-48.24-26.14 0 0-6.92-7.11-15-15.13 5.4 20.1 24.74 66.19 40.8 83.4l-9.85 12.18-26.44-16.01c-2.07-1.95-45.32-86.23-45.32-86.23l-4.99-11.15c-4.61-10.88-10-28.12-10-28.12-8.49-30.75-69.477-59.02-90.656-60.65l-9.934-1.38-22.527-0.39-1.203 3.1c-3.184 25.74 27.55 60.58 50.488 84.69l8.472 8.78c0.57 0.69 2.39 2.2 2.39 2.2l0.89 1.12 1.18 1.23h-0.25l17.87 22.27c0 0.64 0.16 0.94 0.16 1.48 0 4.76-3.59 8.86-10.62 16.06-12.26 13.42-32.104 34.91-32.104 62.67 0 9.79 3.992 20.73 9.942 32.04 31.812-11.16 137.71-25.23 207.65-1.93l116.61 50.03 59.84 24.24c28.36 3.59 81.21 10.4 117.57-5.19 34.13-14.4 48.67-24.96 63.02-44.34l-21.12 4.98-20.14-0.33 13.42-13.81 14.35-12.42c19.38-16.03 48.43-42.05 56.86-70.55-0.41 0.36-2.38 2.32-2.38 2.32s-24.7 21-34.63 26.7c-0.24 0.21-6.36 2.23-6.36 2.23v-0.39c-0.92 0.57-3.95 1.48-3.95 1.48l-23.03 4.64 14.93-15.71 9.05-10.57c17.22-19.72 45.96-52.75 50.96-84.37-4.14 3.08-8.27 6.27-8.41 6.57l-5.66 4.73c-18.64 15.46-34.51 28.84-48.71 22.67l-11.19-4.94 35.79-32.11 2.3-2.19c21.81-19.99 34.83-38.13 37.31-60.23-12.14 6.75-26.98 14.98-26.98 14.98l-8.89 3.71-12.07-11.63 11.33-15.1 22.88-19.18 21.03-25.22c2.7-20.56 19.46-63.06 40.47-68.84 1.46-0.43 40.19-13.81 61.76-21.38-12.67-8.04-26.27-12.23-47.63-4.88l-25.05 29.81c-13.92 23.09-31.05 51.76-64.17 47.93l-16.18-2.08 13.9-17.54 13.24-11.31 29.52-37.85s10.81-27.31 16.93-43.2c0 0 16.36-37.8 23.8-54.55-32.54 6.05-49.2 13.53-70.25 36.62 0 0-8.95 13.02-9.51 13.8l-17.46 42.11c-9.45 26.07-17.02 46.78-31.83 49.01l-10.49 1.39 1.74-10.16 3.57-24.42 4.94-62.15-0.17-2.13c-0.89-24.21-19.38-46.4-37.4-67.94l-31.57-47.23c-13.18-38.34-15.65-91.36 10.15-117.28 33.67-33.58 23.03-62.84 12.47-91.06l-9.13-37.37c0-33.31 10.3-50.67 39.43-66.19 52.82-28.6 102.01-15.83 192.25 23.17 42.08 18.09 153.23 32.2 226.5-41.2l12.31 9.92c-0.49 0.48-1.27 1.29-1.27 1.29-26.2 41.36-50.58 57.63-70.27 70.27l-30.32 24.38c-23.01 28.6-34.58 59.46-34.58 93.19 0 25.23 12.19 53.08 25.6 81.21 7.56-24.42 21.67-52.09 42.38-78.43 0.64-1.84 51.71-53.08 84.39-56.12l17.06-1.64-30.15 42.56c-17.68 25.02-25.49 35.93-25.49 51.94 0 6.71 1.35 14.4 4.07 24.86 1.74 5.95 9.66 30.81 15.22 47.77 10.17-17.26 15.49-36.13 19.29-58.92 8.34-50.3 32.96-79.05 70.58-89.67 95.55-27.61 149.87-133.58 160.99-222.43-0.64-7.63-1.67-15.29-2.22-22.52l-0.89-21.94-15.56-23.48c-16.37-28.1-43.64-74.87-57.39-67.16-36.05 20.05-37.05 53.08-25.15 118.99 4.11 22.86 0.78 29.18-2.96 32.44l-3.64 2.96-6.27-1.75c-10.9-4.38-14.59-28-14.99-32.68-2.16-14.29-28.57-62.18-50.59-78.27l-11.02-4.88-21.36 11.9c-9.84 14.77-4.74 44.34 1.61 71.25 2.38 11.15-0.1 23.91-6.21 29.18l-3.64 3.11-6.91-1.3c-5.87-2.3-8.82-9.1-10-21.61-5.25-58.29-57.02-87.87-70.43-86.65-15.62 1.05-19.97 5.2-22.13 8.31-5.39 9.25-1.51 30.5 12.22 65.07 6.36 15.92 3.89 29.81-6.6 34.3-7.75 3.32-19.35 0-28.56-19.73-38.41-81.54-63.82-111.14-70.89-110.66-1.91 0.64-5.07 4.65-7.83 13.59-7.73 26.5-4.49 71.11 2.12 79.01 15.64 19.17 23.33 38.54 19.28 48.13l-1.91 4.47-7.06 2.11c-4.6 0.39-12.62-1.88-25.87-23.42l-6.36-11.18c-14.51-26.21-48.03-87.17-84.23-82.05-8.54 1.38-11.32 5.18-12.52 7.95-7.23 16.01 10.25 53.99 20.71 69.94 6.35 9.19 10.49 24.56 6.51 32.96l-2.24 3.92-6.8 1.96c-7.38 0.58-13.34-7.08-17.38-13.68-17.47-26.77-78.92-73.85-102.81-69.87-7.87 1.54-18.02 4.43-20 11.28-3.65 13.02 16.76 40 39.14 59.43 10.79 9.65 16.35 20.17 14.59 27.71l-1.16 4.49-6.45 3.19c-6.77 1.93-15.32-2.8-26.27-14.34-33.19-35.67-69.64-50.19-121.06-51.61 0 29.12 16.77 95.09 32.94 118.42 6.57 9.44 12.06 17.73 12.06 24.14 0 2.51-1.01 4.83-3.02 6.76-6.67 5.85-15.81 0-29.14-12.57l-11.67-14.89c-6.72-11.82-12.13-20.83-57.93-18.06l-7.71 5.13c-8.34 10.61-14.2 35.6-9.2 63.06l5.9 20.31 20.47 46.53c25.94 56.4 44.12 97.76 42.15 116.41l-0.72 6.79-10.08 5.11c-13.57 0.67-29.23-27.55-31.76-41.68-2.86-10.97-51.19-45.36-72.87-51.02-2.32 16.96-4.54 39.78-4.54 63.14 0 15.37 0.95 30.23 3.52 41.35 10.95 46.6 52.83 80.09 83.57 104.39l17.7 14.4c3.89 3.14 15.73 12.36 15.73 25.41 0 1.44-0.33 3.16-0.89 5.15l-2.77 12.51-8.8-7.45-78.43-67.24c11.33 27.31 31.02 79.87 36.43 126.56 6.51 55.79 42.25 172.14 59.62 171.32 18.98-0.99 21.11-10.66 23.49-30.65 7.53-53.08-33.89-102.42-49.15-115.83-14.52-13.26-9.6-21.94-7.71-24.23 1.91-2.69 9.39-9.59 27.11 1.9 42.27 42.1 82.22 117.66 79.53 182.47-1.6 35.77-8.82 56.72-22.62 65.86-9.78 6.09-21.91 6.3-36.76 0.54-59.45-23.42-122.56-155.32-125.19-261.38-2.68-100.59-59.53-164.58-89.23-184.43-12.06-8.06-36.42-24.99-43.48-19.72-2.38 1.87-4.85 8.08-4.85 17.39 0 11.94 4.11 24.12 9.13 28.39l-6.9 13.81c-1.36-0.58-1.36-1.54-2.62-1.96l-0.17 0.42c-0.24-0.09-0.09-0.57-0.24-0.72-21.17-7.66-24.36-22.67-25.71-35.45l-8.67-25.76-11.33-14.87c-13.52-18.14-30.34-38.04-50.8-44.7-1.76 9.23-3.65 19.42-3.65 32.91 0 22.05 2.85 46.49 8.71 61.53l8.67 31.46 8.65 26.38-7.22 3.95c-21.05 5.21-30.1-18.54-37.01-35.99-9.2-23.03-40.22-68.16-62.226-77.88-35.645-15.65-52.371-12.87-59.141-10.01l-10.703 12.26c-1.609 4.22 8.875 20.56 15.559 31.44 15.703 24.99 36.344 59.11 32.515 93.02-0.144 0.66 0 1.11 0 1.77l-3.242 21.98-11.656-19.15c-15.09-25.25-57.785-79.81-93.684-87.19l-25.632 5.12c-0.071 0-12.075 15.04-12.075 15.04l8.11 16.1c4.058 5.36 35.664 42.89 35.664 42.89 30.457 31.74 65 68 53.484 104.47l-4.543 14.47-9.351-11.94c-68.188-89.82-94.075-101.46-160.49-99.98l-8.031 2.93-0.887 31.43c4.688 36.02 30.036 64.14 50.5 86.99l19.774 23.17-11.609 10.62c-54.54-45.91-186.22-85.78-257.8-51.27 5.469 1.23 14.918 5.51 14.918 5.51 102.31 22.12 203.75 57.93 319.19 112.7l20.774 13.05s28.523 16.28 29.07 16.52c-2.363-0.4-5.898-32.43-5.898-32.43l-16.817-54.8c-5.058-14.02-8.633-23.39-8.633-30.23 0-3.41 0.86-6.27 3.329-8.68l3.886-4.16 10.254 1.63 29.836 13.65c12.93 6.81 34.695 17.73 38.027 12.51 8.946-13.56 6.582-26.92-0.488-55.37-5.613-24.72-7.629-32.49-0.808-37.62 6.511-5.12 13.511-1.38 30.095 7.87 1.86 1 21.61 13.35 21.61 13.35l19.2 9.28 33.82 2.27c1.88 0 2.62-0.49 3.44-1.96 4.33-7.74 1.32-28.7-9.54-48.14l-3.28-5.51 6.2-9.65 1.35-2.08c4.45-7.38 9.15-9.4 22-9.4l48.82 9.64c0.86 0.15 13.58 4.88 13.58 4.88 7.77 4.26 27.13 17.07 27.13 17.07 11.04 9.46 13.34 10.79 19.67 6.78 13.34-7.93 21.62-5.4 26.53-1.9 7.21 5.49 9.43 16.37 9.43 26.85 0 11.61-2.53 23-3.39 26.59-0.73 2.65-1.11 4.04-1.11 5.22 0 1.44 0.7 2.07 2.69 3.37l12.32 13.74zm899.06-1254.6c-1.61-14.49-3.68-32.1-6.12-52.1-29.04 50.24-68.98 131.25-19.14 264.27 0.56 1.59 1.52 3.7 2.29 5.81 1.2 2.93 1.76 5.46 3.12 8.66 5.77 14.37 14.61 29.32 23.8 32.97 3.18 1.23 6.35 0.9 9.84-1.32 8.42-5.13-4.6-42.42-13.17-66.95l-18.49-78.93c4.94-49.41 10.09-86.72 17.87-112.41m169.62 166.68v0.52c0.72 1.11 1.26 2.68 1.26 2.68-0.45-1.38-0.7-2.11-1.26-3.2m-117.46-211.13c-9.95-10.82-24.08-32.31-33.78-54.98 3.13 22.52 5.35 43.35 6.87 61.13 23.47-7.39 39.43 12.96 51.35 28.7 6.27 8.62 13.96 19.11 18.79 18.2-3.24-3.14-23.42-31.83-43.23-53.05m58.4-280.67c-3.35-12.38-7.75-27.07-12.39-42.89l-15.61 46.54-2.07 5.67c3.89 13.67 13.79 27.99 21.36 31.07 2.03 0.86 2.59 0.3 3.08-0.31 5.8-5.68 5.96-22.05 5.63-40.08m126.7-17.24c10.13 1.95 19.59 8.67 27.95 15.99 3.09-10.23 7.54-32.24 9.6-50.39l-18.82-43.22c-8.9-20.43-16.98-38.79-23.09-57.33-6.21-2.55-10.4-2.55-14.08-0.23 16.61 35.68 22.97 91.68 18.44 135.18m70.09 176.48-12.29-14.84-22.31-33.96-21.36-64.21c-1.67-6.75-11.37-18.77-16.92-19.49-1.21-0.06-2.69 1.45-4.19 4.51-12.63 27.07-4.39 52.05 4.44 78.8l9.9 33.84 3.53 24.26-17.16-17.45c-16.58-18.14-66.61-83.26-20-155.89 2.92-4.83 6.41-7.78 10.46-10.45 4.78-40.16-1.42-91.94-14.35-124.73-16.28 19.47-32.78 46.68-36.22 89.79-3.89 52.52 16.52 146.81 25.97 170.87 9.78 24.99 9.29 77.55-9.91 90.94l-12.01 8.41-0.76-32.04-7.57-48.69c-10.15-13.68-44.44-38.24-66.61-36.92-35.4 2.21-41.5 34.36-45 70.08-0.09 1.54-0.24 2.99-0.24 4.52 0 35.54 35.49 91.06 52.46 109.93 8.98-12.6 22.08-21.31 35.34-24.35 12.07-2.9 23.34-0.49 32.33 6.96 13.73 11.02 22.21 37.52 29.59 61.27l9.94 27.01 7.74 7.35-1.97 11.73-6.27 4.94c-6.52 1.51-16.26-0.54-22.47-9.01l-12.05-29.6-10.63-27.76c-5.65-9.4-13.98-14.97-21.27-13.99-6.35 0.97-11.45 7.06-14.13 17.64-6.92 27.22-10.43 56.15 12.22 82.59 18.4 21.19 29.3 52.59 32.13 92.97l0.5 7.09-8.42 8.29c-11.02 2.2-16.93-14.41-18.44-19.54-16.1-54.85-39.43-91.59-64.44-100.93l-15.72-6.91c-10.89-5.15-33.57-15.25-37.2-10.57-9.8 12.68-5.91 59.92-4.3 82.49 3.53 41.9 21.91 77.25 39.43 111.46 17.3 32.82 33.5 64.23 31.21 95.73l-0.25 2.92c17.87 34.15 38.43 85.54 41.76 101.22 0.88 4.13-1.82 8.29-6.1 9.31-4.29 0.94-8.34-1.83-9.3-5.97-3.51-15.58-26.11-71.52-43.57-103.32l-31.36-10.83-27.42-12.65-16.66-5.97-13.55-4.52c-0.09 0.55-3.42 6.66 2.77 41.59 6.03 35.6 17.7 62.36 34.92 80.81l119.16 67 9.05 8.38c6.97 6.4 15.49 14.59 22.94 23.64 1.5-13.48 3.73-28.61 6.83-48.86l1.89-10.49 1.11-43.97-6.56-44.86-0.97-11.73c-3.1-5.6-5.08-11.3-5.9-13.4-3.69-12.03-5.06-30.08-5.06-49.34 0-24.6 2.14-51.93 3.59-71.44l0.92-14.8c3.18-44.7 32.89-68.81 63.13-76.5-0.88-4.13-3.24-16.61-5.26-27.01h-0.06l-0.95-6.14c-0.96-5.21-1.52-9.49-1.52-9.49h0.35l-11.11-72.37c2.74-40.96 47.36-126.81 63.47-141.36l6.36-5.85 15.64 21.55s18.17 23.59 28.97 37.37c4.35-18.44 12.68-55.43 12.68-55.43 0-14.95 3.52-40.89 12.01-54.61l-42-101.37-15.87-36.83-11.26 35.15c0 0.08 11.81 53.4 11.81 53.4l7.32 41.03zm373.62 625.78c-11.63 27.82-42.32 66.82-51.11 78.06l3.74-27.33 10.78-38.7 12.72-71.38c0-42.98-22.78-132.86-33.57-153.96l-7.24-16.07c-6.27-13.35-14.04-31.28-20.41-31.55-0.93-0.16-8.34 1-21.9 25.68-25.72 46.35-28.43 122.19-22.85 148.02l5.63 23.12 9.29 45.15-11.13-2.08c-2.53-0.57-4.27-5.37-6.51-7.09 0 0.16-0.15 0.52-0.15 0.52l-0.15-0.75c-13.44-9.35-23.75-33.01-29.06-79.82-1.02-10.28-2.94-25.86-2.94-45.03 0-40.66 8.25-96.81 47.55-147.27l0.42-0.75c39.1-39.04 59.26-129.57 66.35-175.9-2.02-1.81-3.98-3.83-3.98-3.83 0.24 0 0.52 0.18 0.52 0.51 0 2.9-7.49 16.46-7.49 16.46-6.21 14.07-16.36 28.54-28.27 31.11-13.5-8.41-5.72-18 1.27-35.7l12.21-44.12c0-15.58-20.77-58.81-39.03-71.07-2.66-1.87-6.13-3.62-8.74-2.47-18.75 7.65-50.88 87.11-56.92 115.19l-3.91 26.35-0.84 31.71-1.94 31.91-10.85 1.55-7.22-2.66-4.13-3.34-3.41-6.57-2.3-23.52s-1.2-15.34-2.95-24.35c-4.76 12.9-9.95 34.22-10.88 49.43l-1.66 10.85-4.91 8.48-9.56 2.61-11.8-1.56 2.07-21.88 0.15-17.37 5.1-18.53c9.03-27.16 19.1-67.31 2.98-100.58-4.34-9.32-10.07-14.29-16.7-14.8-12.66-0.73-27.58 11.63-35.99 23.99-11.81 17.96-13.82 68.94-15.09 99.26-0.14 4.64-0.55 18.68-0.55 18.68-0.65 21.4-0.89 30.18-16.82 40.51l-11.9 6.3s-1.12-18.05 0-36.35c0.8-18.81 4.13-38.07 4.13-38.58 0-24.93-34.64-55.52-54.23-70.41-9.3 13.2-22.14 46.09-22.14 74.54 0 3.1 0.06 5.96 0.38 8.62 0 0 1.36 44.67 1.82 63.36l2.77 33.51 8.84 32.05c6.81 16.26 27.92 65.28 47.92 65.28 3.52 0 4.79-10.01 6.3-26.58l5.07-40.48s4.19-19.87 10.4-38.64l6.05-16.17 5.36-11.35c11.61-24.63 22.57-35.69 33.93-34.76 9.59 0.55 20.44 10.7 36.59 33.73l9.1 13.41 25.69 42.92c12.05 27.67 29.41 64.02 29.41 64.02 12.48 33.01 21.83 152.58 3.19 179.01l-11.75 19.23-13.41 17.42-27.58 15.44 6.84-18.09 5.51-21.58 9.98-39.15c9.86-25.86-5.93-128.83-17.45-147.87l-10.67-20.75c-11.72-23.36-39.04-78.03-56.36-76.49-8.8 0.81-11.17 24.47-13.09 41.65-0.7 6.63-0.05 42.23-0.05 42.23 1.73 39.52 4.52 99.44-10.9 135.43l-9.99 24.71-16.67 30.41-22.56 15.62-0.62-13.03 0.8-18.35 0.77-46.51c-1.98-50.06-16.73-68.42-37.52-93.95l-24.8-33.28c-9.19-13.52-15.6-18.11-19.26-17.63-6.84 0.9-13.11 20.5-15.32 27.97-6.06 17.73-10.48 103.21-5.32 129.01 1.49 6.02 5 21.94-6.36 24.86l6.51 71.62s71.82 55.1 85.66 65.68c21.26-48.62 43.09-74.55 65.56-73.22 49.08 3.38 84.95 78.01 94.86 114.08 23.91-30.04 35.81-61.33 38.25-102.38l0.97-11.39 10.55 4.55c30.56 13.65 71.61 66.91 78.9 95.21 0.07 0.55 9.71 75.24 9.71 75.24-0.12 0-4.46 40.65-4.46 40.65l-3.56 43.16c0.39 11.4 7.78 36.09 26.65 68.94 43.04 74.53 45.33 225.24 44.01 249.69l-0.67 12.35-10.98-5.85c-15.43-8.35-20.43-8.11-24.41-4.79l-14.32 11.55 1.27-18.3c1.21-15.98 1.78-35.11 1.78-55.28 0-63.63-6.44-139.4-26.28-175.45l-11.21-18.72c-16.19-26.85-24.93-41.47-24.93-100.21 0-18 0.91-40 2.56-67.73 0.15-2.14 0.15-4.01 0.15-6.18 0-34.3-16.06-74.54-31.26-89.82-14.22 33.73-20.73 58.53-54.61 97.54-1.02 1.23-1.68 1.44-2.9 2.2 1.64 32.04 1.22 69.9-0.84 84.94l-1.14 8.61-10.04-2.59-22.33-5.15 0.57-7.53c10.82-55.1-5.51-153.64-39.49-190.04-9.49-10.4-19.59-14.81-30.69-13.42-12.54 1.39-24.14 26.83-31.06 68.03v46.51l8.68 66.34-12.69-6.43c-25.8-13.88-58.61-77.24-61.3-99.76-2.61-17.27-37.48-58.77-54.77-65.62-4.61 28.82-7.54 48.35-7.69 64.08 2.77 7.81 4.59 15.98 3.24 24.81l-0.16 2.17c1.51 5.51 2.94 11.33 5.34 17.45 17.83 44.67 43.03 83.44 71.37 109.11 2.83 3.13 3.39 8.05 0.2 11.06-2.77 3.23-7.63 3.5-11.1 0.76-29.6-27.52-56.57-68.25-75.25-115.02-3.65-8.95-6.12-17.3-7.62-25.68-22.63-28.46-65.66-72.58-98.04-75.14l-12.71-0.06c-49.35 12.51 33.91 123.7 54.94 135.24 51.66 28.3 73.92 43.25 91.85 91.59 0.41 1.24 1.12 1.49 1.42 2.63l-13.02 7.87-48.39-32.34c-21.21-11.31-46.06-29.66-69.55-49.5 10.3 44.59 35.07 98.5 79.69 131 39.94 28.78 81.12 45.39 174.08 45.39l0.4 15.74c-78.18 4.39-87.01 20.91-89.23 33.03 38.09 5.06 119.29 62.27 142.71 83.49 29.24 8.8 51.93 27.49 64.5 53.46 7.41 15.53 11.33 33.23 11.33 52.6 0 20.8-4.31 43.83-13.02 68.03l-6.6 18.6-7.93-17.91c-3.08-6.45-6.36-10.79-24.23-6.72l-16.82 3.83 8.01-15.01c8.09-15.64 10.98-27.64 10.98-37.95 0-13.17-4.71-24.11-9.77-36.14 0 0-1.6-4.19-2.29-6.66-2.53 7.21-5.19 14.81-5.19 14.81l-8.1 28.87-15.55-2.21c0-26.19-10.22-52.35-27.22-76.16l-29.95-6.32c-2.19-0.91-2.53-1.49-2.74-1.64-0.89 1.25-1.26 2.62-1.26 4.22 0 5.61 3.45 13.24 6.1 18.78l11.18 42.68c-2.53 23.72-8.34 78.91-56.28 82.32l-47.3-7.63c-20.65-5.79-42.78-10.25-60.55-2.35 20.39 12.27 87.53 54.37 87.53 54.37 13.97 9.74 38.41 20.71 101.79 18.48 39.34-1.14 103.96-44.34 117.56-71.07 0 0 5.07-5.22 5.07-5.31 0 0.09 5.63-2.41 6.24-2.19 14.7-2.39 10.72 16.06 10.72 16.06-11.49 30.86-49.43 59.16-77.94 79.72 0 0-5.79 4.19-7.3 5.36 1.21-2.43 10.55-3.16 16.98-6.51 21.06-10.31 64.62-39.51 78.82-75.86 3.42-9.92 10.72-12.9 15.73-11.57 3.16 0.87 9.91 4.55 7.53 18.41-5.12 27.76-39.18 70.17-92.72 95l-32.21 10.16-40.4 20.5-30.96 28.78-74.22 61.79-3.1 1.15 0.06 0.27-61.9 31.41-46.21 23.48c-25.56 39.36-45.56 69.41-91.92 68.65-72.06-1.38-91.44-38.63-105.25-65.76-7.22 4.13-37.71 33.64-35.32 64.68 3.98 54.28 68.66 110.11 109.71 123.46 8.33 2.71 22.29 5.06 30-1.29l-17.71-29.58-47.54-21.63-9.69-3.5c-15.31-5.43-13.64-14.47-12.78-17.06 2.54-6.9 11.83-10.31 20.66-7.3l35.95 10.95s3.34 1.48 6.42 2.85c-4.99-2.91-10.35-6.26-11.11-9-0.47-1.82-0.8-3.62-0.8-5.31 0-8.86 5.49-17.72 11.76-22.9 7.83-6.82 24.94-14.02 36.43-7.45 3.88 2.17 10.39 7.93 8.35 21.49-0.74 3.89 0.56 7.41 3.8 10.7 4.6 5.22 15.71 9.56 30.61 9.85l30.18-34.59c34.2-29.18 71.63-56.7 113.35-61.5l28.72-2.16c43.83-3.41 124.87-9.5 152.11-26.92l41.6-24.3 27.49-17.81 4.88-2.65c5.49-4.1 18.84 7.81 14.23 12.09l-3.02 7.62-39.03 24.33-34.24 21.34c-22.64 17.27-80.18 23.87-125.79 29.14l-48.33 7.23c-25.76 8.54-109.44 57.25-128.72 86.63l-10.61 15.83c-16.11 22.63-43.18 61.03-36.05 78.15 2.37 4.95 8.34 8.62 18.02 10.25 7.22 0.96 12.29 2.05 18.42 3.19 24.91-24.8 73.19-44.66 94.05-43.88 17.77-29.93 37.07-51.48 58.02-58.72 67.66-23.96 83.98-16.66 133.05 5.04l17.78 7.62 23.57 20.17 14.56 12.77 60.37 2.42h20.08c54.4 0 88.55 9.14 113.63 20.92-0.97-3.98-1.99-8.08-1.99-11.6 0-6.61 1.44-12.36 5.18-16.91 5.67-7.03 14.65-9.95 27.61-8.96 23.14 1.6 57.21 33.4 69.02 58.35l12.09 22.4 8.17 18.96c4.27-10.1 7.29-21.34 7.38-37.47 0.69-48.34-21.43-87.23-59.46-103.95-43.11-18.69-69.99-20.08-92.48-18.6l3.1-17.24c34.46-10.64 92.18-28.55 94.38-52.18 0 0-1.09-17.9-1.09-20.1-5.73 2.36-16.51 6.99-16.51 6.99-23.03 22.85-60.25 42.44-75.81 34.76-1.5-3.74-2.62-6.93-2.62-9.71 0-11.4 12.78-17.06 24.5-22.12l27.41-15.34 62.87-60.35 26.1-19.08s5.72-4.55 11.06-8.95c-19.68-0.15-35.66 2.75-48.76 15.22l-9.14 8.63-7.78-23.03-17.54-22.61 1.39-5.84c25.92-42.93 44.51-87.53 57.29-136.21l33.34-83.82s11.52-29.66 17.75-47c-30.77 23-59.38 70-64.2 86.66l-4.67 18.06c-11.06 45.42-23.84 82.88-43.5 95.66 0 0.24-2.16 2.62-2.28 2.35-1.27 0.88-2.17 4.22-3.74 4.77l-14.23 3.82 5.58-15.52 29.26-86.78 3.5-16.6 11.04-35.75c12.87-40.57 37.07-116.67 37.4-159.17-14.53 28.69-31.5 73.21-42.65 105.52l-9.29 26.25-15.06-3.94s4.76-77.92 7.11-114.72c-2.42 3.8-6.09 9.4-6.09 9.4l-9.29 16.52-14.46-5.61 11.36-37.46 13.36-53.26 1.26-9.32c1.9-15.12 5.01-39.03 5.01-61.9 0-10.13-3.26-16.76-4.88-25.35-11.16 28.3-22.47 50.54-35.15 63.26l-12.93-8.74c11.72-29.87 17.54-55.55 17.54-77.34 0-10.09-3.8-17.52-6.36-26.37l-18.81 40.33s-2.92-53.32-2.92-54.35c-9.14 5.19-37.47 21.85-37.47 21.85l16.34-55.13c-4.67-35.1 12.71-102.02 26.52-130.17l46.6-62.45c27.79-34.43 62.54-77.07 66.13-95.8l13.5-50.44c4.1-12.46 5.31-15.53-0.51-35.64-5.21 5.58-10.06 11.48-16.52 16.47-20.22 16.06-31.1 24.05-37.67 27.84l-14.95 32.4-26.73 54.77-15.38-1.24s-1.39-3.34-1.39-3.49zm-508.48 855.43-17.71-0.18c-19.53 0-67.72-14.5-118.82-30.44l-107.11-28.13c-66.82-2.68-101.51 23.57-124.54 57.82 42.23-25.84 88.44-23.03 166.4-2.9 74.04 19.04 91.75 20.83 155.73 15.52l116.45-7.11c2.84-2.53 2.84-2.53 5.72-5.37zm152.33 318.02c-10.73 0.3-9.7 12.92-8.9 22.75 8.74 0.78 14.9 0 24.21-4.55-1.27-9.62-2.71-18.57-15.31-18.2m-26.68-2.68 3.74-9.63 6.97-10.39 9.6-8.29 9.39-5.03 20.06-4.64-25 3.19-7.54 1.69-9.84 3.65-3.5 1.62-8.48 5.27-7.06 7.27-5.1 7.29-3.48 9.2-1.58 8.77 19.6 3.16 0.16-5.42zm139.66 8.94-2.36-10.51-4.88-9.99-6.06-7.46-7.93-6.13-10.43-5.87-12.65-3.77-10.25-1.96-9.28-1.23-14.21-0.7 16.01 1.93 14.14 3.89 12.88 7.65 8.94 9.92 5.82 10.94 2.66 9.29 2.01 7.23zm-211.11 69.96c13.33 13.17 92.23 22.94 142.75 23.78 94.04 1.81 151.45-22.15 193.38-39.61l27.37-12.05 16-4.88 17.57-2.23 13.75 1.53 10.13 2.57 26.52 10.18s14.71 5.28 16.15 5.73c-2.1-0.85-3.52-9.25-3.52-9.25l-1.66-5.49-12.77-6.27c-19.54-11.24-36.54-21.04-91.33-19.83l-93.02 22.51c-44.37 14.2-94.7 30.02-139.46 30.02l-43.59-5.33-39.75-10.7c-34.22-10.58-57.49-16.67-73.77-2.71 13.75 5.12 26.36 12.93 35.25 22.03m576.06-1737.2c0.53 1.36 2.04 4.85 3.49 8.17 7.47-11.25 12.24-25.41 12.24-47.51 0-8.41-0.49-17.32-1.84-27.58-4.13-31.37-9.86-50.54-15.64-63.2l-6.1 20.56c-14.82 48.31-3.88 78.03 7.85 109.56m-56.19 252.98 6.81 84.99 0.33 12.26c20.56-14.82 47.72-48.4 56.34-127.1 0.84-6.93 1.14-13.68 1.14-20.19 0-33.07-8.59-64.53-19.17-94.94-29.21 29.47-44.43 76.58-45.45 144.98m-35.27-61.37c9.71-48.96 33.82-114.72 57.67-145.37l-11.07-29.9c-4.52-13.84-7.23-25.92-9.76-38.04-14.74 8.47-35.33 20.7-35.33 20.7l-39.12 19.95c-5.18 3.11-7.62 3.74-11.36 4.89l-3.41 28-8.26 36.08c-11.88 34.64-28.33 82.92-19.35 103.69l11.04 25.53 35.98 90.17c3.86 15.37 21.95 94.8 20.14 130.88 0.59-2.84 1.26-5.52 1.26-5.52 11.51-30.07 24.11-63.89 24.11-86.35 0-0.7-0.06-1.54-0.06-2l-5.3-30.97c-4.88-21.68-10.97-48.77-10.97-79.91 0-13.33 1.35-27.25 3.79-41.83m664.01 486.86c-0.9 2.38-5.79 13.32-11.33 25.53 1.69 6.75 3.41 13.32 3.55 18.29 1.45 30.48 5.73 32.65 18.84 35.51 0.58 0 1.51-0.39 1.85-0.39 0.84-6.57 1.37-13.41 1.37-21.13 0-22.6-4.81-44.79-14.28-57.81m-120.81-86.96c-4.27 11.04-6.32 24.44-6.32 34.31 0 7.2 1.2 12.6 2.89 13.62l7.59 0.26c11-4.15 25.3-24.14 38.65-54.3l6.99-15.47 15.01 30.81c8.5 16.9 16.57 34.3 24.41 51.14 117.58-327.41 383.58-757.31 563.27-953.06 3.05-26.58 5.64-58.1 6.46-91.25-255.29 211.91-537.48 655.71-649.09 956.03l0.82-0.84zm728.81 362.6 11.88-19.83c3.91-53.08 11.06-72.22 22.94-95.94 1.44-3.05 11.3-20.65 11.3-20.65 8.95-14.5 16.58-27.52 16.58-43.88 0-3.08-0.19-6.45-0.72-9.74-0.85-4-1.03-18.54-6.33-31.32-5.98-13.89-17-25.83-17-25.83l-4.05-9.22-2.38-46.21-6.17-31.88s-4.95-15.53-7.36-20.8c0 0.08-0.06 8.23-0.06 8.38l-10.25 32.09-13.08 50.07-9.83-30.5-9.46-48.71-6.91-18.24-8.58-14.34c-9.43-15.49-15.01-16.55-15.01-16.55 0.42 0.67-0.76 8.47 4.06 20.65 6.3 15.53 7.87 48.71 7.87 87.64 0 10.95-0.08 22.13-0.24 33.56v30.28l-6.99 46.06c-5.19 25.77-12.06 60.53-12.06 88.59 0 8.19 0.79 13.32 2.23 19.92 18.57-3.1 39.18-4.95 52.75-5.64l7.6-0.24 0.6 7.3c1.06 8.65 1.51 16.85 1.51 25.05zm-1.99-456.01c-1.44 2.78-2.14 6.55-2.14 10.59 0 12.57 5.3 28.18 10.46 41.26 9.59-5.27 22.31-10.64 30.66-7.05 7.2 3.16 13.65 8.98 19.38 18.11 12.74-53.89 27.22-134.24 41.5-225.82-37.71 55.62-88.1 139.05-99.86 162.91m-105.98 292.62c8.09-25.93 16.28-75.9 16.28-108.94 0-3.46-0.66-5.18-0.87-8.1-13.47 22.84-35.17 67.06-49.64 96.54l-29.55 56.69c-9.66 13.66-48.36 135.49-52.62 153.36-0.29 0.84-0.29 1.81-0.29 2.59 0 3.9 4.03 7.72 6.44 12.22 0.85-3.66 4.91-20.63 4.91-20.63s16.13 12.31 21.67 16.31c8.81-11.12 61.19-76.58 61.19-76.58 6.21-5.04 17.15-6.73 25.56-10.31-4.43-15.13-8.47-40.57-8.47-67.89 0-16.81 1.27-33.05 5.39-45.26m-253.3 175.57v22.94l-3.68 91.56c0.91 0.06 1.94 0.36 2.47 0.69 3.02-23.66 17.88-75.71 32.62-99.13l54.07-50.27 30.87-25.2c10.52-11.87 23.59-51.93 33.69-84.06l17.79-50.88 87.86-179.32 8.01-43.15 4.83-39c6.9-14.65 17.27-16.61 25.8-18.36l16.12-7.27 82.53-134.61 47.95-73.11 34.15-50.52c8.11-58.02 15.98-116.71 22.55-172.89-130.81 175.94-313.8 455.37-497.63 912.58m78.19 243.38c26.29-50.63 22.79-53.59 7.29-66.16l-6.8-5.69 6.68-6.24c12.91-11.87 31.89-46.6 27.76-88.8-2.14-23.2-8.17-38.18-16.37-39.81-6.81-1.69-19.68 6.24-32.46 27.93-0.23 0-38.43 97.4-38.43 97.4-13.98 28.18-25.38 41.68-36.5 49.43 7.93 6.26 16.07 12.32 16.07 12.32l32.61 17.34 3.08 2.53s1.41 1.68 2.53 3.16c4.94 6.6 17 22.37 17 22.37l23.96 25.53c2.26 0.78 12.44-8.48 23.51-44.31 0 0 0.39-3.17 0.97-6.06-1.84 2.08-8.11 9.79-8.11 9.79l-12.54 1.75-14.95-3.32zm437.07-1330.7c0.82-9.85 1.35-18.92 1.87-28.15-169.12 136.81-383.3 469.54-498.14 753.47 121.35-249.49 313.29-553.75 496.27-725.32m-553.35 950.14c12.38 23.9 16.63 53.31 16.63 78.36 0 17.75-1.56 33.01-3.31 42.08l-8.9 26.37s-3.34 12.24-6.11 21.79c2.56-4.49 5.15-8.95 5.15-8.95l23.73-37.16c190.84-472.85 380.43-754.8 511.91-929.13 3.67-31.64 6.86-62.51 9.7-90.9-138.53 142.08-454.05 628.8-548.8 897.54m305.51 386.49 3.52-22.73c0.39-2.32 0.39-4.34 0.39-6.42 0-12.86-5.55-23.6-15.64-29.26-9.32-5.18-19.87-4.49-27.22 1.54l-42.98 55.34-35.45 48.77 0.31-24.54c0-18.93 30.95-89.64 47.38-103.06 50.75-40.9 87.7-75.22 103.92-142.02 7.93-33.82 10.46-50.78 10.46-59.2 0-3.88-0.69-5.87-1.41-6.81 0 0.58-30.66 15.23-30.66 15.23-22.39 13.07-75.02 79.41-92.32 112.72-13.44 25.29-47.78 152.39-54.91 180.76l-12.15 27.31-43.83 50.57c-1.11 2.11-26.67 31.32-26.67 31.32l-16.22 12.89-1.08-11.51c-3.26-83.82-38.58-113.39-79.88-128.52-17.9 19.27-50.39 42.2-76.74 47.41 0 0.16-0.42 0.46-0.72 0.73l-0.15-0.43c-0.39 0.16-1.42 0.88-2.2 1.24l-4.89-14.86c10.32-5.21 47.03-66.34 62.64-107.81 11.88-30.35 14.46-51.21 8.02-62.12-3.41-6.16-10.37-9.89-21.19-11.69-11.3-1.97-43.25 24.71-48.31 35.62-1.16 2.8-2.72 2.5-3.74 4.61v0.15c-2.9 4.65-5.19 9.86-9.93 8.35-7.08-1.84-6.5-5.88-4.55-22.84 0.58-2.9 19.72-43.53 19.72-43.53l36.26-77.79c11.12-41 12.78-65.86 4.8-75.18-4.35-5.27-12.9-7.35-27.02-6.36-28.99 2.27-49.24 19.12-62.63 30.33l-17.24 14.73-0.54-16.66 9.34-46.29 7.24-29.79c0-14.19-2.3-33.03-12.85-42.2l-25.02-5.27c-15.84 2.26-31.27 18.6-42.31 30.71l-25.14 24.48-1.14-18.47-7.77-69.49c-3.38-22.59-20.02-66.27-30-72.03-0.15-0.24-9.61-4.94-42.52 31.65 0 0.15-12.25 24.65-12.25 24.65l-27.69 49.25-1.9-20.01-5.01-22.78-2.53-19.53c-0.27 0-29.47-76.81-29.47-76.81l-5.55-12.6-30.89-33.72-18.96-16.42c-0.13 0-5.01-3.57-5.43-3.72 1.39 0.15 1.45 8.74 1.45 17.06v12.39l0.48 21.4c-0.18 1.23-0.18 2.29-0.18 3.44 0 21.37 10.43 53.83 19.56 66.15l6.96 9.93-11.96 2.58c-39.28 7.82-68.69-76.82-74-94.04-8.01-24.89-21.52-43.97-36.26-51.27l-17.24-1.71c-6.84 4.46-9.85 46.17-10.76 60.04l-1.93 19.62-5.09 16.31-9.11-12.81-6.35-11.63-3.26-24.15-5.48-28.87c-8.9-27.32-30.27-66.22-42.86-64.93-22.94 1.84-31.63 31.68-39.4 57.75-8.52 28.72 1.2 76.1 11.79 90.12l11.57 15.34-19.36-3.01c-1.26-0.36-34.96-40.45-37.88-52.18l-18.75-57.96-10.46-33.42c-3.74-10.79-18.17-16.64-30.8-18.84-3.74 5.6-6.42 9.59-6.42 9.59-31.13 39.9-61.52 82.55-74.63 116.46 18.17-8.29 61.37-28 61.37-28l-6.36 17.39-11.57 27.46c-7.24 15.43-13.51 29.35-13.68 44.39l0.47 1.75c8.5 40.78 45.73 44.25 121.96 47.41l58.65 3.08 4.16 29.6c6.39 50.64 11.48 90.84 73.54 133.14 30.11 20.91 33.1 56.32 36.29 93.91 11.21-13.5 18.99-37.64 18.99-63.75v-6.6l15.61-2.26c6.75 26.98 50.94 79.91 103.12 113.57-16.28-27.88-30.48-67.43-36.98-120.53-9.54-79.6-34.79-89.52-70.24-103.09l-36.68-16.67c-35.59-20.7-78.93-46.31-78.93-72.33 0-1.66 0.23-3.68 0.66-5.55l2.83-11.54 38.19 28.6 69.96 45.7 87.7 27.73 91.99 28.87c66.08 33.06 99.96 87.26 109.39 176.14 2.62 22.4 16.73 36.96 31.97 52.42 21.22 21.7 45.19 46.33 28.43 93.38l-17.45 33.15-59.14 72.13-16.33 46.09-7.9-26.35c-11.24-45.9-90.19-92.98-130.72-88.01l-33.28 6.06c-30.47 6.45-66.4 11.97-115.8 6.3 19.38 14.7 48.98 20.28 85.09 21.52l31.34 1.66c49.01 3.31 79.58 35.93 81.81 82.16 0.3 0.72 0.93 1.02 1.08 1.54h-0.3c0 1.29 1.02 1.78 1.02 2.92l-15.43 2.81c-10.31-26.38-38.06-47.39-59.83-54.74-18.23-6.06-39.15 9.64-51.91 33.21 42.78-3.76 68.52 0.37 83.59 15.44 20.5 20.82 19.69 59.98 11.61 116.28-10.95 75.81 49.18 121.62 88.97 151.97l20.85 16.76c27.83 25.29 81.06 15.1 108.13 0.06 41.77 27.49 134.31 66.91 228.04 66.91 87.11 0 162.67-33.09 217.77-57.2l43.19-16.52 21.76-5.52 7.11-1 64.86-4.6s23.4 0.24 36.6 0.41c-3.2-12.77-13.08-26.91-60.19-32.61-46.5-5.39-61.73-1.23-98.84 12.12l-18.14 6.33 14.59-29.99c5.96-13.32 11.18-22.42 23.99-29.36l-0.66-5.54c-1.96-13.18-4.16-27.07-4.16-40.06 0-2.14 0.91-3.68 1.08-5.79-13.68 12.87-28.42 24.33-40.87 33.61l-15.01 11.36c-3.44 2.78-8.65 2.06-11.12-1.39-2.53-3.21-2.08-8.19 1.21-11.05l15.7-11.58c17.87-13.44 39.18-30.35 56.43-49.85 2.4-10.19 6.75-26.92 6.75-26.92s9.22-27.55 14.16-42.04c-13.92-0.7-41.54-2.75-41.54-2.75l-47.55-1.23-35.87 33.09-12.06 9.92-13.56-4.62 15.67-29.29c14.35-24.78 34.06-58.26 34.06-89.97v-1.03c-64.98 10.13-84.46 30.21-123.19 83.47l-12.32-4.89c0.42-2.17 1.39-6.75 1.39-6.75 14.52-53.71 67.3-94.04 93.16-102.57l34.69-14.56 19.83-13.56 19.53-16.58 3.2 13.17s1.93 8.47 4.91 16.43c2.71 8.08 4.85 16.54 5.4 18.08 4.7-4.27 9.16-8.83 9.16-8.83 26.35-26.76 69.93-70.5 110.61-90 24.78-23.72 55.04-67.15 67.22-98.83 14.29-36.41-0.84-109.02-11.93-128.67-0.97-1.96-1.6-1.96-1.99-1.96-9.28 0-29.85 24.32-38.04 39.27l-8.99 19.47-19.44 37.01-9.13 11.79s-7.17-18-5.36-28.21c-14.95 27.76-28.82 41.66-41.59 57.09 0 0-2.24 3.08-3.2 4.27 7.36-1.53 29.45-7.05 29.45-7.05l1.11 8.3c4.38 23.53-4.16 96.54-18.2 115.34l-8.47 12.99-11.58 16.46-17.27 12.75s-22.91 16.09-24.02 11.7zm460.54 125.72c-51.5 5.18-157 48.5-170.53 84.94l-15.1-4.77c0-0.21 0.39-0.63 0.45-0.72l-0.24-0.09c0.09-0.48 0.78-0.78 1-1.26 15.04-55.04 69.44-93.98 121.25-124.3 80.48-47.05 198.39-169.07 235.14-232.21 12.08-20.56 59.64-57.57 101.18-90.06 0 0 18.35-15.28 34.15-28.49-105.41 18.54-119.54 28.64-148.12 56.94l-39.45 30.45c-95.91 165.65-345.78 305.17-508.42 382.03l-8.8 14.64-10.79 16.92 10.55 80.89c17.54-2.23 32.85-1.23 46.96 1.54 86.62-20.76 273.17-96.99 350.77-186.45m2.47-45.06v-0.45c-0.14 0.21-0.35 0.45-0.84 0.54 0.31 0 0.7 0 0.84-0.09m-355.59 46.33c-10.98 8.1-20.86 15.42-20.86 15.42s-9.71 6.37-13.6 8.99c0.45 11.28 1.12 22.51 1.27 30.62 150.98-74.53 363.89-194.65 468.33-336.46l-37.31 28.88-113.72 85.84c-83.61 68.3-178.62 145.51-284.11 166.71m-39.07-19.17c19.84-7.51 52.63-19.84 63.18-73.55 1.02-4.67 1.5-8.98 1.5-12.87 0-9.28-2.77-16.22-7.89-19.74-7.78-5.12-20.92-2.98-33.28 5.55-18.35 12.23-100.49 73.21-114.41 91.99 0 0-20.43 34.87-20.43 35.02 0-1.36 33.39-4.04 33.39-4.04l9.43-1.32 47.57-13.18s3.94-1.53 8.41-2.98v-0.39zm647.25-573.2 25.17-38.87c16.7-24.81 103.65-142 148.83-196.56-148.83 104.06-301.95 341.71-331.55 406-31.37 68.6-286.36 252.31-356.96 267.74-0.81 0.16-1.45-0.29-2.41-0.29l-18.8 43.97-31.9 67.85c64.51-23.49 181.36-110.44 207.74-140.28 56.12-64.08 108.81-114.44 181.83-173.7 60.26-48.77 134.05-165.81 178.05-235.86m-2634.5-1970.3c-27.06-8.289-61.54-19.18-61.54-19.18-58.27-19.98-124.29-42.761-158.83-40.922-16.76 0.68-31.37 1.661-45.09 2.563 78.72 65.129 190.27 68.789 265.46 57.539m-230.36-373.97 6.57 3.301c5.09-4.258 13.43-8.117 26.86-10.527 45.44-8.141 78.01-88.672 92-123l11.1-27.41 7.37 17.757c5.09 12.032 44.61 64.02 65.01 78.571 0.96-12.621 2.22-29.02 2.22-29.02 2.38-15.101 4.94-32.289 4.94-52.832 0-16.656-1.61-35.359-6.85-57.027-3.39-14.59-5-29.199-5-43.129 0-34.883 8.36-63.051 13.51-76.563-1.36 0.661-2.56 2.09-2.56 2.09-10.31 4.332-34.34 17.5-49.19 40.512-9.78 15.391-13.58 20.969-20.96 17.32-7.38-4.101-6.27-6.66 6.57-38.851 11.12-28.461 42.87-46.5 79.63-66.969l29.21-17.09c79.07-47.699 187.74-2.32 228.07 27.149 28.5 20.949 56.66 47.089 78.9 69.121-46.86-65.903-133.27-120.63-179.01-134.79-58.99-17.891-173.93-25.84-235.83 5.957-60.4 30.961-111.86 49.32-180.83 46.492 0 0-12.4 1.211-14.46 1.211 3.89 0.617 15.81 11.269 15.81 11.269 21.04 14.641 43.51 20.028 74.63 18.649 6.01-0.43 17.12-0.711 20.56 7.109 3.39 8.551-3.99 15.371-17.73 27.789l-22.83 22.344c-23.99 26.527-7.48 105.96 1.48 148.62 7.77 38.242-17.38 96.481-36.12 130.21 2.57 0.629 4.6 1.078 6.93 1.738m151.93 74.364c18.64 10.226 36.58 20.168 54.35 29.386 37.25-36.226 97.65-57.316 173.22-82.066l16.9-5.531c-48.17-21.481-95.94-54.18-140.58-96.129-0.8 7.789-1.52 14.879-1.52 21.539 0 25.429 7.79 44.508 32.17 81.578l4.91 7.41-8 3.789c-27.86 13.961-79.22-27.68-130.68-74.848 0 0-3.88-3.57-7.54-6.66-5.94 5.039-87.4 71.059-87.4 71.059-1.36 1.23-2.68 1.582-4.04 2.441zm200.03 76.808c18.95-24 63.03-45.859 97.93-50.801 30.81-4.39 69.58-29.41 89.94-55.097-27.92 1-56.19-1.133-85.46-8.711l-48.12 15.078c-58.58 17.422-134.39 40.41-157.39 71.973 33.16 14.418 66.97 24.359 103.1 27.558m265.6-120.49c-7.63 3.027-15.81 4.437-23.8 6.367l-22.62 26.68c-15.56 22.5-30.25 43.5-87.11 61.5l-33.73 10.492c-21.02 6.269-32.93 10.32-41.91 16.039 124.87-6.988 173.7-63.199 209.17-121.08m-338.4-294.74 28.51 15.64 61.67 45.899c36.91 32.293 78.49 68.953 158.12 91.801 7.93 2.109 14.7 3.878 21.21 5.449 18.73-16.188 36.51-62.699 39.69-98.297-28.53-34.184-61.14-67.602-75.8-81.981-38.34-38.961-145.54-103.59-228.06-55.41-25.6 14.789-34.23 34.258-34.23 64.18 0 1.391 0.47 2.891 0.47 3.73 12.15 4.028 28.42 8.989 28.42 8.989m330.61-29.711v-35.699l5.4-56.391 1.83-28.809c-23.24 14.77-55.31 28.969-77.01 37.68 26.36 26.699 49.08 55.23 69.78 83.219m24.39 187.34c5.01-4.879 6.33-12.098 3.52-21.637-2.41-8.492-8.43-19.41-15.9-30.953-12.38 11.543-23.73 39.25-31.44 60.742 27.22 2.379 39.02-3.262 43.82-8.152m1.72-350.44c12 12.57 26.22 28.238 45.9 40.367-8.04-12.758-15.31-28.398-15.31-50.769 0-20.129 6-44.25 22.79-72.571 7.14-12.367 15.85-20.976 25.71-27.848-26.58-1.1016-63.36 4.039-77.4 14.039-27.94 19.922-56.13 40-66.37 65.621 0 0-7.93 18.34-19.85 35.258-10.61 14.801-25.81 28.633-25.81 28.633l-16.17 19.41c1.72 1.547 3.9 2.777 5.63 4.379 29.37-9.653 111.44-50.7 107.8-61.02l-2.27-7.73zm-695.42 160.85-39.86 9.769s-5.55 1.481-9.19 3.383c0.86 0.211 3.33 1.027 3.33 1.027l20.15 10.102-48.66 10.488c-4.2-0.488-38.99-4.879-63.81-7.91 12.13 10.082 30.16 25.453 30.16 25.453l-5.09 5.957-46.52 70.211c-22.47 38.75-47.68 82.762-100.57 130.24 0 0-5.88 6.661-9.12 10.11 5.71-3.692 25.71-8.59 84.95-33.629 31.32-13.113 54.53-36.742 78.73-61.801 34.45-35.473 72.57-75.09 140.49-86.793-2.07-10.316 2.08-48.207 2.08-48.207l16.04-43.41s5.07-10.223 5.22-11.02c-1.5 0.25-10.36-5.351-16.82-8.222-1.37 1.562-14.7 11.051-16.92 12.422zm1541.1 68.582c57.66 39.39 143.8 104.92 171.29 252.91 6.12 32.617 25.65 42.437 46.42 52.969 0.09-1.641 0.43-2.7 0.43-4.321 0-59.097-23.28-217.05-101.7-291.74-50.39-48.121-97.78-47.461-136.24-40.23 7.02 9.918 13.59 20.097 19.8 30.41m-2795.3 1323.6c-12.277-5.39-19.684-7.11-19.891-7.11 14.739 8.87 49.34 26.08 67.68 35.39 0.094-1.38 0.559-4.04 0.559-5.5-12.196-5.38-33.489-16.29-48.348-22.78m4301.4 962.57c54.47-10.04 98.99-18.31 111.25 3.03 1.78 3.23 2.66 6.91 2.66 11.01 0 15.37-12.97 36.92-40.16 67.88-76.46 87.1-213.09 287.84-255.13 356.95 39.39-12.35 81.65-21.39 111.7-18.87 22.57 1.97 49.58 6.36 54.7 24.78 0.42 1.84 0.84 4.07 0.84 6.08 0 18.39-20.97 42.05-68.42 77.11-56.66 42.8-119.29 131.02-156.75 183.68l-15.5 22.03c-29.93 41.3-63.9 65.23-99.25 87.95 42.26-3.1 72.88-1.06 80.41 15.44 7.12 15.34-8.5 32.7-21 44.36-67.37 63.12-241.7 187.3-388.97 212.34 25.8 30.96 30.02 74.87 28.9 100.22l-0.39 8.96-21.28-3.83-96.69-7.3c-34.07 0-75.17 18.78-119.06 38.55-52.62 24.02-112.18 51.27-174.18 52.72-71.92 1.6-151.37-19.53-236.04-63.09l-37.49-2.5-66.44-2.56c-41.62-11.69-110.73-52.17-167.4-127.19-27-35.78-16.7-85.9-8.19-126.45 5.79-27.33 10.85-53.01 2.05-61.96-11.09-11.16-24.6-11.97-34.03-10.73-19.14 2.35-38.19 14.98-47.72 31.13l-8.07 13.72-5.91-14.77c-3.5-8.71-5.22-16.4-5.22-24.54 0-19.38 12.54-40.51 33.73-69.17-41.29 0.75-85.48-17.15-116.13-47.95-25.71-25.54-37.37-55.8-33.34-84.98l1.9-13.32 10.74 8.32c33.39 25.84 72.69 43.34 108.01 48.17l41.36-4.46 76.44-12.3c61.78-2.17 87.64 19.02 112.63 39.43l24.69 18.59c6.57-9.22 46.11-33.73 53.9-67.67 0.9-3.97 1.26-7.71 1.26-11.66 0-12.09-3.95-24.63-12.12-36.92-36.35-57.18-39.85-62.84-64.44-138.62-22.96-72.34-89.73-98.68-132.92-100.58 6.45 17.93 9.86 44.06 12.9 76.43l6.57 59.09c6.03 35.29 16.42 45.17 34.84 63.02l30.24 29.87-14.26 3.04c-37.79 8.77-112.49-36.83-150.43-81.05-13.9 24.47-36.87 59.17-87.93 59.17h-11.69l4.34-10.62c10.25-26.03 22.07-77.43 0.96-105.84l-25.86-28.94c-33.51-35.35-77.88-77.13-88.37-126.29-15.61-2.57-53.05-8.71-92.38-7.32 2.59 9.97 3.89 19.31 3.89 32.82 0 1.14 0 2.41-0.25 3.5 0 0-1.92 51.93-4.16 81.34 15.83-16.81 13.29-19.25 46.06-52.26l4.61 8.38c11.36 19.02 17.16 40.06 17.16 60.41 0 10.3-1.52 20.15-4.53 30.04 0 0-9.95 44.49-14.14 62.6 0.55 0.19 56.52 11.21 56.52 11.21l27.73 30.18 11.63 20.56-6.27 4.33c-37.31 21.41-55.93 55.16-81.34 101.67l-6.52 11.52c-9.91 18.14-17.45 60.49-18.72 83.36 2.3-0.24 7.48 2.66 7.48 2.66 17.67 9.68 41.81 22.75 54.26 56.66 11.99 34.7 10.3 60.73-5.49 82.16l-4.58 6.09-6.18-4.21c-12.09-8.15-30.9-14.53-45.84-10.74l-17.22 14.51c0 0.14-2.98 28.56-2.98 28.56l3.56 25.36c-1.6 16.99-17.39 30.5-26.29 37.52 7.63 7.38 23.88 22.18 23.88 22.18l50.03 54.77c5.79 10.7 9.76 31.8 9.76 56.78 0 37.92-9.52 84.7-37.79 116.68l-18.96 20.5-41.8 13.65 3.31-13.72c0-22.72-0.97-72.6-14.59-92.92v0.94c-3.37 24.08-6.39 54.64-38.7 52.59l-21.4-8.01-31.29-19.87-13.74-3.68c-33.82 0-62.15 12.79-91.93 30.18-42.92 24.8-91.66 53.02-178.92 50.39-134.22-3.64-187.1-55.07-209.55-76.95l-9.92-6.81c-11.91-0.78-13.02-0.42-15.49 4.28-4.1 8.08-9.75 18.12-29.44 18.12-22.54 0-30.1-14.87-35.87-26.41l-11.76-17c-48.42-16.06-166.79-70.74-169.01-186.15-1.27-82.31 62.01-120.68 96.15-129.54l9.6-2.53 0.14 10.06c0.36 24.11 9.29 64.53 64.09 66.28 19.84 0.57 34.04-10.76 42.67-20.34 13.67-15.52 19.79-34.46 18.67-41.78l-1.11-6.51 62.73-21.37s-69.8 7.17-120.19 4.79c-36.61-1.84-94.33-16.39-94.33-16.39-40.8-9.1-79.53-17.58-102.78-14.65-68.18 8.46-81.9 56.18-87.06 106.24l-2.72 29.3-12.31-26.85c-26.67-58.93 0-166.77 68.42-204.36 33.37-18.48 69.63-28.6 104.78-29.17 34.85-0.79 70.6 12.83 108.47 27.21 40.92 15.89 83.39 34.72 129.2 34.72 83.35 0 112.86-4.46 137.33-12.08 2.47-3.35 1.98-2.48 4.77-5.64-16.84-4.28-50.57-14.32-50.57-14.32l-45.5-31.61c-25.64-18.27-55.07-39.25-74.44-41.42l-83.5-2.47 7.6-12.03c14.76-20.49 74.8-69.08 136.71-67.54l55.3 8.44c19.3 4.88 29.63 7.08 37.17 1.38 8.99-6.8 9.69-18.29 8.99-27.16-2.72-23.56-22.42-56.12-55.34-72.24l-9.14-4.13 14.99-18.15 32.88-26.13c-38.02-19.47-78.83-25.67-111.62-14.68l-16.04 5.37 14.69-37.61s14.69-36.24 18.99-47.24c-5.65-3.01-41.77-17.84-41.77-17.84l-40.31-25.69c-9.83-9.07-36.6-37.6-43.5-49.3-31.77 51.12-70.17 85.39-118.83 115.1l-40.11 23.88-53.49 24.05-28.97 66.29-11.17 31.21c-0.09 0-18.73 33.55-18.73 33.55l-27.27 24.15-14.49-2.32s-2.47-28.88-10.16-61.59c-6.06-25.91-17.02-54.94-22.11-69.89-7.28 21.55-18.23 54.38-18.23 54.38l-8.02 34.71-23.9 31.15-27.46 22.84-13.64-83.88-10.65-27.65c-8.58-23.86-11.67-45.11-11.67-63.83 0-44.21 18.08-74.63 29.54-93.37 0 0 8.33-16.44 8.33-16.53-0.17 1.09-16.76 0.25-16.76 0.25-20.87 1.14-55.96 3.05-117.77-13.65l-82.42-35.3-24.45-10.86-17.56 8.87-13.95 31.13 7.38 24.93 14.7 61.79-21.52 49.67-24.19 52.24c-0.1 1.32-0.26 2.44-0.26 3.88 0 27.85 34.51 67.58 55.72 91.85 0 0 8.42 10.3 13.58 16.54 28.74-24.53 89.62-29.72 126.29-20.7 17.93 4.36 27.94 11.11 30.01 20.4l1.59 7.8-7.64 1.69c-18.16 3.83-50.47 31.05-56.51 57.48 0 5.28 0 11.18 0.09 13.2 2.21-2.71 14.6-2.71 14.6-2.71 43.51 1.3 58.97 4.04 92.46 56.88l6.21 9.25-11.05 2.63c-81.67 19.34-98.42 29.02-106.11 95.48l-0.71 71.46h0.3l-0.47 8.14-1.03 7.99c-7.07 99.67-40.11 171.71-99.7 212.46-67.96 46.75-84.32 47.78-192.8 42.74l-81.06-28.69-114.32-47.48c-36.02-12.05-132.06-20.25-194.79 6.67l-5.801 2.47-3.64-4.88c-23.332-30.09-31.758-57.97-31.758-82.77 0-31.46 14.141-57.54 28.269-78.79-12.628-5.81-50.246-23.87-50.246-23.87-7.957-3.89-25.886-14.44-25.886-14.44l-81.121-41.05v-0.45c-13.329-4.22-137.75-47.81-137.75-47.81l-100.96-35.56-88.121-16.43c-6.718-0.09-16.879-9.74-20.058-17.06l-2-4.79 3.734-10.28c36.348-41.5 90.891-48.1 143.76-54.61 12.683-1.69 20.101-5.04 20.808-8.92 0.707-4.56-7.16-8.45-15.961-12.61-7.867-3.97-70.347-41.62-70.347-41.62l-236.08-134.46c-18.383-7.69-56.727-25.31-56.727-25.31l-117.65-53.18-56.668-24.47c-11.359-5.49-12.957-14.07-12.871-18.89 0.4062-11.68 11.727-23.31 19.352-26.23 43.824-16.52 203.15-15.44 240.93-10.82l167.34 33.16 31.758 14.31s66.113 18.81 66.582 18.81h9.535c2.215-0.43 2.468-1.57 2.468-1.57-28.585-40.24-77.097-91.03-153.16-144.13l-156.44-96.33-28.488-15.74-144.72-75.11-78.422-33.15c-21.43-8.57-36.926-38.7-33.246-64.14 1.6758-12.63 11.109-42.04 59.754-47.26 105.49-10.76 257.43 32.03 451.6 127.49l-0.179 0.97c10.097 5.12 17.812 10.01 26.445 15.04-116.04-139.19-236.38-245.32-364.1-357.69l-110.03-97.99c-31.66-28.75-35.398-78.72-8.6485-113.98l31.512-17.88c73.59-27.28 137.82 17.06 194.49 56.09l14.043 9.65c78.351 53.5 141.93 121.71 203.3 187.6l10.863 11.57c-41.668-71.61-75.563-130-75.563-130l-58.425-122.55-19.125-43.64c-68.739-152.66-92.235-286.86-107.26-408.72-11.985-97.42-6.27-170.47 15.398-195.58l18.586-9.77c41.445-1.27 68.66 27.07 79.375 51.92l49.629 143.28 40.313 119.68c17.617 49.07 113.68 294.28 112.32 294.6 12.223 21.55 31.043 64.9 31.043 64.9l21.265 49.25 23.028 46.08c-16.817-119.24-34.223-320.55-22.321-479.73-44.906-61.81-107.55-134.86-144.69-155.1-26.656-14.27-33.668-20.8-31.133-29.18 2.774-8.37 13.516-7.22 21.532-6.27 1.98 0 162.72 32.58 162.72 32.58l5 1.39c16.574-164.14 33.485-249.38 45.86-292.19 41.207-144.96 156.4-450.17 296.98-567.69 68.089-57.149 107.78-75.688 128.03-60.34 33.33 25.062-10.7 131.41-63.42 247.21l-10.87 24.12c-52.411 118.11-70.704 178.69-91.755 265.65 54.54-16 191.04-48.46 238.52-57.87 0 0 322.68-48.91 349.14-52.89-1.83-1.63-4.54-4.16-4.54-4.16l-71.36-62.06c-11.98-9.57-17.87-19.08-17.87-28.34 0-2.38 0.31-4.64 1.2-6.89 11.11-34.96 112.33-42.15 142.96-43.34 45.47-2.38 133.38 17.95 197.75 32.66 0 0 30.32 6.75 45.78 10.07-0.24-0.93-15.38-46.48-15.38-46.48-4.32-13.26-6.21-24.259-6.21-33.959 0-29.91 17.23-46.66 34.77-64.14l6.51-6.762c-50.96 5.602-82.57 16.621-120.8 46.602l-9.21 6.988-3.16-11.09c-8.13-26.738-11.92-44.937-11.92-62.168 0-17.851 4.74-37.562 11.98-63.562-21.61 18.793-58.19 51.082-58.19 51.082-58.58 54.328-119.37 110.33-151.05 118.87-51.6 13.488-121.4 21.338-162.9 2.258l-11.75-5.43 9.78-8.141c39.2-31.738 80.25-89.75 104.47-147.44 43.34-103.38 146.45-174.91 222.81-185.88-9.04-6-28.03-18.867-28.03-18.867l-6.66-5.922 9.45-5.508c17.67-12.633 108.97-64.98 224.16-38.391l24.2-35.39c2.07-4.242 6.84-12.172 8.98-20.77 2.63-10.191 2.86-21.031 2.86-27.543 0-22.047-7-46.027-13.51-64.468 0 0-0.95-1.211-2.28-8.2-43.92 5.602-62.31 16.149-85.04 39.782l-14.28 14.527c-111.77 115.55-116.52 116.04-225.49 116.04-23.03 0-45.5-4.981-49-19.16-0.23-1.332-0.33-2.711-0.33-3.981 0-14.422 20-25.062 26.76-28.89 57.77-31.211 97.32-97.289 126.15-145.76 0 0 24.69-36.981 31.96-47.699-6.51-5.039-79.93-65.801-79.93-65.801l21.7-0.367 59.04 1.929 38.51 3.27 28.97 5.109c2.07 0.45 3.81-5.511 3.81-5.511 6.27-8.348 15.22-20.887 54.45-24.207l18.58-6.801 5.3-4.16-6.25-4.922-11.36-15-15.55-14.028c-14.45-10.761-23.58-19.961-21.03-30.171 3.65-13.11 23.8-15.551 72.87-21.551l23.96-2.809c68.02-8.18 100.23-21.601 128.92-33.398 28.41-11.711 53.08-21.871 104.13-24.66 116.3-5.981 196.24 20.207 254.98 56.617 33.26-21.469 58.57-41.289 71.9-75.2 11.68-28.941 45.96-55.148 73.27-71.578 46.69-27.91 140.91-27.582 162.49-4.7305l1.84 1.9805c61.28 21.578 118.36 99.618 110.74 151.85-7.15 49.941-30.23 85.551-48.92 114.26-26.59 40.777-42.38 65.41-8.32 104.78 11.21 12.797 29.99 29.809 53.83 27.637 26.2-2.5 52.05-27.34 75.96-68.117 38.97-65.942 104.91-109.36 186.5-125.69 87.72-17.648 182.36-2.32 241.5 41.86 11.12 8.468 25.11 22.3 39.54 39.589 137.87-22.398 208.27 61.871 262.59 144.76 19.29 29.379 30.02 80.57 40.14 130l10.19 46.641 12.61 41.879 5.85 15.597c6.2 18.032 10.36 29.633 49.39 71.942l11.27 13.711-19.68 1.8c-128.34 13.899-178.52-64.203-227.57-199.75-28.02-78.32-43.03-106.17-64.37-128.2 5.49 16.481 9.68 32.813 10.63 47.953 1.19 20.411 16.76 55.719 31.63 90.168l24.71 59.653-7.6 2.66c-31.34 12.5-62.78 12.09-93.19-0.942-56.7-24.589-92.53-85.14-103.75-113.79-34.44-89.14-64.86-154.98-146.79-193.44-22.45-10.602-22.78-20.539-20.94-25.43 2.87-8.199 13.23-10.351 30.48-6.129 23.8 6.129 100.01 75.84 124.18 132.03 43.39 101.15 81.2 164.63 140.72 177.13l32.95 4.726c-0.64-0.406-1.15-10.488-25.02-38.207l-19.71-32.133-18.21-45c-21.7-57.136-48.7-128.04-116.16-183.36-47.72-39-104.77-55.539-165.36-47.277-70.94 9.507-138.19 52.398-184.21 117.73-33.04 46.996-69.09 74.137-107.34 76.219-38.18 2.258-77.31-19.832-115.16-61.762-40.7-45.199-10.74-99.551 18.44-152.23 18.6-33.379 37.82-68.161 34.96-97.129-6.74-68.078-23.63-76.68-51.51-90.86l-16.82-8.9805 0.16 0.2696c-17.58-10.371-33.82-9.0391-56.79 29.859-13.81 23.269-18.44 44.07-13.81 62.211 8.02 30.781 40.34 49.59 64.03 63.461l11.08 6.597 5.94 3.731-9.19 7.66c-32.74 19.98-69.62 2.769-91.87-7.328l-14.89-6.09c-20.16 17.867-29.69 81.129-15.79 121.52 4.28 12.372 6.39 21.45 7.83 28.911l6.85 8.57c30.05 32.91 44.28 60.609 41.68 82.07-2.89 24.809-26.13 37.25-49.46 52.867l-21.05 14.774c-51.98 39.75-179.63-6.211-230.52-41.231l-38.49-28.519c-35.57-27.402-71.76-52.91-110.43-62.344 0.73 9.301 6.5 52.66 6.5 52.66l-4.1 35.782c126.76 129.24 283.77 167.11 382.45 94.082 1.42-1.25 3.31-0.981 4.94-1.391l13.62-21.383 13.9 6.012c-1.66 9.18-4.04 19.441-7.38 30.879-0.1 0.941-0.64 1.722-1.03 2.441-23.75 75.18-93.43 190.16-303.33 193.15-160.08 2.152-251.13-52.438-317.5-92.11l-51.37-29.14c-64.52-30.86-153.2-27.457-188.44-20.918 18.18 9.531 72.47 37.437 72.47 37.437l-26.83 2.524c-111.53 7.808-173.61 27.886-262.26 177.05l-30.48 69.653s-14.52 32.5-21.06 47.64c66.31 0.989 120.1-51.66 176.56-107.29 42.16-41.437 85.64-84.136 135.44-102.89l17.47-6.5-7.57 17.09c-18.98 42.886-28.33 83.976-28.33 124.96 0 4.961 0.46 9.703 0.86 14.66 117.91-66.418 205.21-40.188 334.51 1.453l61.45 19.508c41.11 12.781 135.43-3.828 187.5-20.801l38.08-12.051c57.01-17.906 106-33.648 120.2-43.316 0.08-0.063 0.48-0.434 0.64-0.434l8.63 13.301-0.39 0.16c-6.91 4.16-135.99 80.352-242.66 101.6-2.56 0.988-5.16 1.929-7.86 2.769-128.44 45.24-269.89 36.14-381.74-22.09-8.73 11.559-14.53 26.27-14.53 43.52 0 20.53 6.1 43.1 18.64 63.65 8.84 15.04 45.1 11.25 74.07 8.14l67.41-3.49-23.17 15.68c-45.35 32.19-152.41 21.12-202.76 10.94l-40.56-4.75-63.82-10.68c-51.1-14.59-165.49 2.36-176.3 11.82 2.07 8.34 56.43 50.13 112.97 67.3 26.91 7.97 101.85 7.97 305.92-37.56l5.97 14.22c-32.16 19.98-165.54 66.08-265.62 67.76-85.41 1.17-404.36 48.41-471.83 60.48-79.54 14.32-212.19 48.25-247.44 67.25l-0.613 2.17c3.086 0.53 182.86 54.47 182.86 54.47l-9.13 10.55c-30.46 35.99-86.56 127.07-86.56 215.35 0 7.91 0.39 15.96 1.25 23.85l4.35 142.57c-0.16 0.14-2.07 19.56-2.07 19.56-2.53 21.95-5.16 46.21-5.16 64.57 0 4.9 0.97 7.77 1.27 11.66 40.03-20.08 73.28-55.55 90.44-102.05 11.82-32.29 34.99-137.78 38.73-176.49 7.44-75.39 68.98-177.28 105.03-189.16l12.69-3.81 1.5 13.03-8.82 29.86-13.33 40.82c0.09 0 8.83 20.14 8.83 20.14 4.35 10.62 14.29 31.97 23.39 46.02 21.61-42.52 74.63-103.89 98.46-123.87 18.4-15.29 115.15-70.9 165.8-69.49l2.48 15.35c-20.17 7.11-69.95 71.97-94.86 143.81-14.28 40.78-27.4 153.08-27.4 210.62v66.09s1.11 44.61 1.59 70.77c18.26-27.72 43.44-73.09 51.99-91.59l90.5-215.17c31.9-77.38 72.01-132.36 118.76-166 6.82-6.99 15.15-12.89 24.75-16.76 0.41-0.29 0.8-0.68 1.11-0.84 0.25-0.17 0.39-0.17 0.89-0.56l21.58-8.07-12.15 19.57c0 0.16-0.06 0.16-0.17 0.3h-0.06c-27.77 46.46-45.54 75.68-45.54 123.16 0 31.07 7.84 70.35 24.1 126.74 0.79 1.48 1.05 2.87 1.44 4.55 0.17 0.49 0.31 1.03 0.47 1.39 0.09 1.11 0.24 2.2 0.56 3.2 0.33 2.17 0.94 4.12 1.2 6.23 7.68 30 11.11 62.42 11.11 91.6 0 28.01-2.54 49.39-5.15 65.23 44.69-28.49 75.3-92.09 86.75-121.17 31.11-79.24 35.87-166.29 35.87-228.88 0-15.98-0.16-30.55-0.55-43.05 0-1.23-0.16-2.48-0.16-3.77 0-59.86 30.81-103.89 94.54-139.39 0-0.34 0.24-0.34 0.24-0.34 1.12-0.58 1.36-1.48 2.22-1.99l9.86 12.38-6.61 7.25c-44.46 50.47-57.78 65.43-55.24 104.43 1.5 24.59 12.25 41.74 24.21 55.94 23.74-112.91 45.88-186.72 147.66-250.19 61.98-38.5 135.71-60.14 201.21-79.22l125.73-45.39c76.12-42.25 107.81-74.81 132.97-101.1l29.45-30.351-4.04 24.961c-13.58 81.92-61.93 149.81-139.54 196.25l-84.32 47.78c-101.77 55.5-189.48 103.65-231.71 206.79l-45.18 125.9-37.52 77.7c-43.68 58.96-98.6 166.99-109.7 207.46-7.01 27.07-9.79 49.1-9.79 65.31 0 1.91 0.57 2.75 0.72 4.1 0.58-0.68 2.06-3.18 2.06-3.18 18.17-28.38 40.74-63.97 70.18-82.27 16.43-9.78 100.4-63.22 134.3-119.84l29.23-41.56c10.4-13.11 15.47-19.61 15.47-26.37 0-2.89-1.27-6.23-3.32-10.26l-11.91-64.04s8.34-7.87 8.58-7.3c3.15-2.85 6.12-5.28 6.12-5.28l9.19 17.8c13.84 27.97 25.56 51.95 63.58 50.05l109.08-28.84 30.31-8.38c-7.94-29.49-11.92-56.15-11.92-80.04 0-81.06 39.38-131.84 75.19-178.36l18.02-23.71 29.75-39.77c73.27-98 122.16-163.63 172.77-344.12-0.81-37.519-4.8-71.851-13.21-99.699-61.9 95.969-126.84 150.56-171.43 181.07-38.23 26.309-93.87 56.049-137.6 62.659-0.31 0-0.77 0.29-1.17 0.29v-0.06c-0.33 0.06-1.13 0.45-1.36 0.55l-3.98-15.2c36.91-13.98 113.91-55.168 174.32-111.8 46.2-42.938 124.41-167.3 147.35-233l15.45 1.89 1.75 36.95 3.68 42.351 2.78 15.801c25.8 146.72 35.47 201.64-14 406.33l-20.15 144.59-0.28 12.61c-1.57 48.87-1.44 105.02 10.52 151.96 0 0 4.97 24.35 11.12 53.53l24.54 30.16 65.07 79.67s52.39 64.82 71.77 88.4c16.52-40.86 44.43-156.86 44.43-190.94 0 0 0.24-27.62 0.24-32.17 0-74.71-4.52-88.46-81.26-278.55-24.93-61.88-50.91-197.86-50.91-282.7 0-26.602 2.32-48.133 8.29-60.821l10.13-21.972 11.44 49.371c3.02 2.332 60.89 104.2 67.47 111.33 40.81 36.78 54.13 77.44 45.72 140.02-4.67 36.64-0.15 78.98 10.94 117.19 17.78-34.89 34.54-86.49 24.62-135.73l-13.47-60.17-9.94-28.13-14.11-29.59 36.35 15.71s33.1 28.96 35.69 32.91c0.48 0.93 3.49 6.09 4.07 7.18l5.33 9.57 19.59 53.83c17.93 61.68 22.36 102.07 30.57 158.01 6.02 44.18 29.96 102.44 51.83 139.77 1.33-2.6 8.35-14.14 12.97-22.09l6-15.24c12.96-27.75 0.95-179.55-3.74-205.13l-5.61-25.04 40 43.49 37.91 45.63 19.14 30.66c10.46 24.2 15.11 44.34 15.11 66.51 0 30.17-8.84 64.68-24.05 118.22-10.65 36.25-14.11 66.42-14.11 90.29 0 22.36 3.32 39.83 6.63 51.93 10.18-12.26 25.16-28.82 35.62-40.56 25.35-34.75 47.41-77.62 50.25-111.7l-0.93-25.41 16.45 7.81c27.13 16.33 51.19 53.99 55.88 97.89l0.55 63.97c-0.49 13.55-0.49 28.86-0.49 44.76 0 51.29 2.3 107.66 14.53 128.52 19.29 31.89 27.49 35.92 45.97 36.25-6.85-19.34-12.15-39.67-12.15-58.05 0-5.96 2.23-12.64 3.11-19.04 0-0.22-0.7-106.58-0.7-106.58l-0.78-91.06-5.6-79.82 12.77 6.68s125.51 74.37 125.9 74.82c-0.39 0 7.38-7.05 11.9-13.61-54.28-24.67-129.9-93.03-159.14-140.33l-44.46-73.85c-40.9-69.03-96.6-163.05-137.89-226l-17.54-17.69-27.74-35.61c-12.1-14.1-17.81-20.53-13.07-27.85l2.53-3.73 2.47-1.09 12.23 2.32c34.24 11.07 62.88 28.55 85.03 51.8 76.29 81.19 109.69 140.02 141.52 197.05l24.38 44.7 34.15 51c32.19 46.52 103.99 106.33 150.94 133.11-4-2.11 62.33-56.02 77.4-68.25-66.03-97.11-147.05-173.92-206.03-209.18-5.43 35.26-8.6 55.34-28.04 65.75l-10.33 5.5-4.19-8.04c-114.79-190.92-146.01-211.64-202.68-249.07l-55.48-39.17c-9.28-7.02-13.17-13.38-12.45-19.378l0.87-3.481 0.88-1.73 4.88-2.781c5.97-2.539 14.16 0.242 22.57 6.82l18.09 12.6c38.73 26.54 119.32 82.18 141.4 119.35l23.8 34.9 28.75 36.12s18.15 22.32 30.63 39.8c0-1.52 2.29-15.99 1.99-27.69-0.24-11.49-5.01-19.09-5.01-19.09l-7.28-13.59c-9.77-17.66-19.78-31.13-19.78-46.72 0-2.79-0.18-9.12 1.63-14.67l4.64-12.81 7.96 10.82c37.37 52.81 101.18 96.49 135.63 119.73l17.6 12.32c26.44 19.59 167.29 149.01 196.89 289.53l3.25 15.37c21.58 103.56 47.47 222.78 92.96 249.48 0.48-6 2.07-19.03 2.07-19.03l3.41-90.33-3.89-85.08c-12.72-125.17-116.77-271.09-144.46-303.77l10.31-12.01 90.81 45.65 168.04 77.32c61.54 37.17 111.7 79.96 141.24 120.92 29.54 40.18 49.42 85.33 62.15 130l2.05 0.76-0.55 3.44c13 45.62 18.5 90.66 18.96 129.2 19.98-27.21 39.27-65.37 40.18-78.26l15.79 0.29c2.83 70.08 42.8 118.28 75.63 146.64 37.01 31.8 79.06 50.27 111.19 58.53-23.27-37.14-37.5-83.37-40.61-114.45-5.39-52.44-28.66-142.56-76.7-223.28l-9.74-16.82 48.26 13.44c28.03 8.03 58.44 15.82 76.01 11.88-136.05-167.62-242.24-218.95-293.45-243.25-67.64-31.69-126.83-39.31-184.46-46.64l-64.44-9.43c-98.93-18.22-188.87-57.15-291.88-126.82-4.16-2.95-31.77-22.26-31.77-22.26l-20.02-13.32c-39.73-30.88-98.5-84.06-98.5-84.06-56.18-50.28-96.81-86.331-171.05-109.58-33.43-10.25-97.02-43.391-128.07-78.688 0 0 2.47-2.929 5.36-5.429-0.17-3.981-0.33-8.473-0.33-8.473l151.77 10.313s92.62 8.476 108.14 9.707c-1.77-15.278-16.85-39.61-28.37-54.399-73.57-19.738-201.84-43.629-232.83-46.148-0.3 0-102.18-6.703-102.18-6.703-95.24-3.789-170.3-6.887-236.91-81.579l9.04-12.46c82.86 38.73 175.85 60.41 248.64 57.402 70.01-2.75 344.23 54.937 381.07 80.137l85.48 70.562c54.71 50.059 109.11 99.609 188.17 107.39-32.76-50.102-115.9-158.44-178.71-202.52l-61.6-42.226h0.65c-81.71-51.41-171.31-91.801-274.97-52.274l-7.38-13.59s63.42-38.027 67.15-40.226l-59.46-3.192-45.67 6.29c-73.73 14.039-165.38 31.718-229.52 14.039-37.41-10.539-114.63-52.161-122.89-86.11l-4.45-17.828 39.29 22.75c20.38 14.219 38.23 26.82 94.95-5.269 88.1-49.493 134.01-109.8 165.56-149.02 18.17-22.387 30.51-35.258 45.03-42.348-4.28-2.5-31.34-19.742-31.34-19.742l-18.6-4.886-0.78-15.602c52.77-9.871 138.65 7.262 158.44 81.52l2.99 11-34.65-2.911c-51.85-4.668-62.7-5.648-93.87 34.723-34.42 43.848-140.49 127.82-189.61 153.27 47.41 10.148 102.26-5.711 155.19-21.571 55.04-16.23 110.49-35.5 159.95-22.422 53.75 14.102 101.43 33.582 119.27 48.442l10.59 11.211s-25.18 10.918-36.75 16.457c9.77 3.851 19.41 5.101 19.41 5.101 53.14 20.328 152.46 57.95 211.74 93.379l24.3 14.43 14.85 14.949 91.6 98.981 178.29 190.7h-18.35c-96.19-2.67-197.64-33.96-264.5-81.561-93.91-66.929-129.96-99.859-171.07-140 14.23 34.75 18.32 59.731 15.73 77.192-6.57 6.871-90.96-10.493-90.96-10.493s-30.81-3.886-58.18-7.687c91.51 50.027 161.35 106.79 231 167.59l38.94 33.69s44.55 32.89 70.9 52.56c101.45 65.02 228.4 107.37 348.24 115.51 81.74 6 139.8 27.95 167.1 40.96 83.5 38.38 137 77.32 174.7 110.84-26.83-187.87-128.97-409.24-192.6-545.86l-39.12-85.281c-3.26-7.981 2.41-20.989 13.26-30.457 8.44-7.231 31.68-22.09 67.58-0.84 224.55 134.27 383.09 474.57 430.05 886.34 10.24-0.35 20.34 3.87 28.03 12.58 21.28 24.44 24.71 80.96-15.95 133.4 1.27 29.86 1.96 59.88 2.32 90.22 13.18 1.67 21.01 8.86 24.06 13.49 14.28 21.17 7.2 64.63-26.38 101.52-0.62 13.74-0.26 27.55-1.11 41.29-13.74 236.55-41.12 392.62-84.15 543.08 135.42-320.58 186.38-681.85 223.52-981.96l3.98-30.71c3.26-25.41 9.46-38.61 20.32-42.16 12.32-4.32 25.19 6.27 34.9 15.93 99.58 99.65 119.72 251.41 119.27 361-0.4 119.72-25.96 231.52-57.54 306.9 27.42-14.29 52.92-23.63 72.64-22.64 55.4 2.8 85.72 12.75 95.4 31.71 2.19 4.37 3.16 8.92 3.16 13.96 0 8.04-3.16 17.39-9.59 27.21-25.64 39.73-266.56 431.86-375.01 619.4 77.64-96 186.09-202 281.18-219.48"/><path d="m1965.5 424.49c-1.11-0.097-2.92-6.758-2.92-6.758s-2.63-5.492-2.33-6.82c-2.27-6.48 0.15-13.32 0.15-21.148 0-8.442 1.12-17.153 2.02-23.731 6.16-52.34 62.47-148.32 139.78-185.94 14.61-6.949 40.8-18.078 50.71-11.328l3.83 2.41 0.56 6.519c-0.35 3.829-1.06 12.75-46.92 34.731-54.63 25.859-115.64 120.64-120.18 160.91-5.35 48.77-15.55 51.156-19.46 52.777"/><path d="m3628.8 3571.5c2.92 7.09-2.24 14.71-8.6 18.45-0.05 0-14.43 6.33-14.43 6.33-23.96 9.68-64.72 25.83-67.19 77.1-1.27 20.04 2.81 32.1 11.79 36.29 21.61 10.19 68.69-19.23 93.73-42.41 54.08-50.09 75.03-113.96 58.69-180.36l13.71-6.84c0.88 1.05 0.39 2.35 1.27 3.49 0-0.33 0.39-0.42 0.39-0.42 0 0.81 0 1.48 0.18 2.29 12.72 17.54 19.41 36.65 19.41 56.01 0 49.51-31.34 99.82-44.12 120.62-52.39 89.97-138.26 108.59-164.39 108.59-34.12 0-55.94-13.35-60.73-36.62-2.69-16.22 3.58-22 11.36-27.27l11.46-13.33 3.12-23.48 2.48-23.32c14.52-36.36 65.2-66.62 105.79-79.28 5.52-1.63 21.37-6.66 26.08 4.16"/></g></g><g transform="matrix(1.3333 0 0 -1.3333 0 480)" display="none"><g transform="translate(285.52 214.03)"><path d="m0 0c0-3e-3 0-3e-3 -4e-3 -3e-3l-1.312-8e-3c-0.645-6.237-1.394-12.183-2.264-17.58h1.298c-16.706-81.503-67.934-129.82-89.267-145.46l-7e-3 1.191c-2.639-2.105-5.364-4.195-8.173-6.263 0.137-0.1 0.273-0.199 0.41-0.299l-0.384-0.519 0.361-0.513 0.21 0.147 4e-3 4e-3 8e-3 4e-3c7.125 5.239 13.705 10.606 19.776 16.046l0.045 0.041 0.036 0.029 0.056 0.056 0.011 7e-3 8e-3 8e-3c3.722 3.34 7.253 6.705 10.608 10.085 6.175 6.226 11.741 12.489 16.755 18.701 14.509 17.967 24.425 35.491 31.281 50.332 1.936 4.187 3.627 8.169 5.109 11.881l0.023 0.048 0.051 0.122v7e-3c4.888 12.275 7.483 21.657 9.02 26.231l8e-3 0.022v7e-3l4e-3 0.016 3e-3 7e-3 4e-3 8e-3v-4e-3c0.074 0.228 0.151 0.461 0.228 0.7 1.124 3.498 2.116 7.723 3.001 12.478l0.011 0.059v4e-3l8e-3 0.044 3e-3 0.011v0.015l4e-3 0.014c1.22 6.606 2.23 14.229 3.067 22.328m4.032 89.916-94.887-0.082v-0.059h93.723v-32.745c-1.187-24.528-2.647-54.291-2.849-56.857 1.053 10.256 1.832 21.266 2.407 31.938l7e-3 0.144v0.018c0.619 11.52 0.995 22.634 1.231 31.953 0.273 10.926 0.343 21.288 0.365 25.034z" fill="#808285"/></g><g transform="translate(288.39 303.81)"><path d="m0 0h-93.724v-1.246l93.573 0.081c-0.023-4.194-0.1-14.026-0.362-24.351-0.232-9.312-0.612-20.422-1.227-31.931v-0.018l-7e-3 -0.125c-0.579-10.768-1.368-21.882-2.438-32.196l1.317 7e-3v4e-3c8e-3 0.059 0.011 0.118 0.018 0.173 0.204 2.566 1.663 32.329 2.85 56.857z" fill="#808285"/></g><path id="outline-lower-left" d="m185.43 45.644 0.207 0.144c0.052 0.041 0.106 0.077 0.162 0.118-1.327 0.98-2.702 2.016-4.058 3.055-1.092 0.833-2.179 1.678-3.245 2.518-0.32 0.251-0.637 0.505-0.947 0.752-0.136 0.107-0.273 0.218-0.409 0.325v-0.452l-2e-3 0.451c-0.911 0.73-1.799 1.452-2.662 2.16-4.851 3.995-9.407 8.047-13.69 12.124l-7e-3 7e-3h-4e-3l-0.055 0.056 7e-3 -4e-3 -7e-3 8e-3 -0.011 7e-3 -0.074 0.07-8e-3 8e-3 -7e-3 3e-3 -0.162 0.159-0.033 0.033-0.012 7e-3 -0.036 0.037-0.037 0.033-0.03 0.029-0.051 0.052-8e-3 8e-3 -0.026 0.021-0.058 0.056-0.026 0.026c-24.658 23.643-40.133 48.179-49.993 68.435-9.334 19.169-13.625 34.479-15.922 41.629-7e-3 0.118-0.014 0.133-0.025 0.195-0.078 0.388-0.387 1.578-0.852 3.495-0.811 3.322-2.075 8.737-3.266 15.232h-1.294c1.541-5.514 12.615-86.158 88.351-144.72-75.738 58.564-86.812 139.21-88.353 144.72h1.294c-0.855 4.674-1.681 9.912-2.267 15.32v0.011l-7e-3 0.063-4e-3 3e-3v0.012l-3e-3 0.022c-0.472 4.382-0.896 8.924-1.272 13.539l-1.305-0.107c0.376-4.622 0.804-9.179 1.279-13.573v-0.022l4e-3 -0.011v-7e-3l4e-3 -0.037c0.972-8.965 2.58-17.436 3.943-23.718 0.683-3.144 1.306-5.739 1.755-7.575 0.159-0.645 0.295-1.194 0.406-1.644l-0.144-0.044v-4e-3c4e-3 -4e-3 4e-3 -7e-3 4e-3 -0.01 0.059-0.174 0.107-0.329 0.155-0.469l0.026-0.085h3e-3c0.048-0.15 0.092-0.283 0.129-0.395 2.23-6.8 6.532-22.574 16.183-42.395 9.916-20.366 25.483-45.042 50.277-68.816l0.011-0.01 0.015-0.015 0.051-0.048 8e-3 -8e-3 0.018-0.017 0.048-0.045 0.03-0.029 3e-3 -4e-3 0.052-0.048 0.059-0.059 7e-3 -4e-3 0.177-0.173 0.011-7e-3 0.015-0.015 0.048-0.045 4e-3 -3e-3 0.07-0.066 0.011-0.012 7e-3 -7e-3c4.302-4.099 8.884-8.165 13.753-12.179 1.298-1.066 2.658-2.161 4.052-3.263 1.102-0.869 2.259-1.769 3.431-2.664 1.439-1.1 2.883-2.183 4.306-3.226l0.392 0.534z" fill="#808285"/><path d="m283.24 196.44-1.294-4e-3c-0.247-1.54-0.505-3.034-0.774-4.478v-0.015l-7e-3 -0.037-4e-3 -0.022-4e-3 -0.019v-0.011l-0.015-0.059-0.01-0.059v-4e-3c-0.874-4.696-1.855-8.85-2.95-12.256v-4e-3c-0.073-0.225-0.147-0.449-0.22-0.675l-8e-3 -0.018-4e-3 -0.015v-4e-3l-3e-3 -0.01-0.012-0.03v-4e-3c-1.559-4.659-4.139-13.978-9.02-26.216v-4e-3l-0.018-0.048-4e-3 -7e-3 -4e-3 -8e-3 -0.01-0.025c-1.475-3.697-3.16-7.656-5.087-11.829-6.821-14.76-16.681-32.189-31.11-50.057-4.99-6.182-10.523-12.411-16.669-18.601-3.332-3.362-6.845-6.709-10.545-10.03l-4e-3 -8e-3 -0.078-0.066h3e-3l-0.036-0.029-8e-3 -7e-3 -0.041-0.037 4e-3 4e-3c-3.597-3.226-7.376-6.426-11.339-9.585l4e-3 -1.191c21.332 15.641 72.561 63.964 89.267 145.47" fill="#808285"/></g><g transform="matrix(1.3333 0 0 -1.3333 0 480)" display="none" fill="#808285"><path d="m285.52 214.03c0-3e-3 0-3e-3 -4e-3 -3e-3l-1.312-8e-3c-0.645-6.237-1.394-12.183-2.264-17.58h1.298c-16.706-81.503-67.934-129.82-89.267-145.46l-7e-3 1.191c-2.639-2.105-5.364-4.195-8.173-6.263 0.137-0.1 0.273-0.199 0.41-0.299l-0.384-0.519 0.361-0.513 0.21 0.147 4e-3 4e-3 8e-3 4e-3c7.125 5.239 13.705 10.606 19.776 16.046l0.045 0.041 0.036 0.029 0.056 0.056 0.011 7e-3 8e-3 8e-3c3.722 3.34 7.253 6.705 10.608 10.085 6.175 6.226 11.741 12.489 16.755 18.701 14.509 17.967 24.425 35.491 31.281 50.332 1.936 4.187 3.627 8.169 5.109 11.881l0.023 0.048 0.051 0.122v7e-3c4.888 12.275 7.483 21.657 9.02 26.231l8e-3 0.022v7e-3l4e-3 0.016 3e-3 7e-3 4e-3 8e-3v-4e-3c0.074 0.228 0.151 0.461 0.228 0.7 1.124 3.498 2.116 7.723 3.001 12.478l0.011 0.059v4e-3l8e-3 0.044 3e-3 0.011v0.015l4e-3 0.014c1.22 6.606 2.23 14.229 3.067 22.328m4.032 89.916-94.887-0.082v-0.059h93.723v-32.745c-1.187-24.528-2.647-54.291-2.849-56.857 1.053 10.256 1.832 21.266 2.407 31.938l7e-3 0.144v0.018c0.619 11.52 0.995 22.634 1.231 31.953 0.273 10.926 0.343 21.288 0.365 25.034z"/><path d="m288.39 303.81h-93.724v-1.246l93.573 0.081c-0.023-4.194-0.1-14.026-0.362-24.351-0.232-9.312-0.612-20.422-1.227-31.931v-0.018l-7e-3 -0.125c-0.579-10.768-1.368-21.882-2.438-32.196l1.317 7e-3v4e-3c8e-3 0.059 0.011 0.118 0.018 0.173 0.204 2.566 1.663 32.329 2.85 56.857z"/><path d="m185.43 45.644 0.207 0.144c0.052 0.041 0.106 0.077 0.162 0.118-1.327 0.98-2.702 2.016-4.058 3.055-1.092 0.833-2.179 1.678-3.245 2.518-0.32 0.251-0.637 0.505-0.947 0.752-0.136 0.107-0.273 0.218-0.409 0.325v-0.452l-2e-3 0.451c-0.911 0.73-1.799 1.452-2.662 2.16-4.851 3.995-9.407 8.047-13.69 12.124l-7e-3 7e-3h-4e-3l-0.055 0.056 7e-3 -4e-3 -7e-3 8e-3 -0.011 7e-3 -0.074 0.07-8e-3 8e-3 -7e-3 3e-3 -0.162 0.159-0.033 0.033-0.012 7e-3 -0.036 0.037-0.037 0.033-0.03 0.029-0.051 0.052-8e-3 8e-3 -0.026 0.021-0.058 0.056-0.026 0.026c-24.658 23.643-40.133 48.179-49.993 68.435-9.334 19.169-13.625 34.479-15.922 41.629-7e-3 0.118-0.014 0.133-0.025 0.195-0.078 0.388-0.387 1.578-0.852 3.495-0.811 3.322-2.075 8.737-3.266 15.232h-1.294c1.541-5.514 12.615-86.158 88.351-144.72-75.738 58.564-86.812 139.21-88.353 144.72h1.294c-0.855 4.674-1.681 9.912-2.267 15.32v0.011l-7e-3 0.063-4e-3 3e-3v0.012l-3e-3 0.022c-0.472 4.382-0.896 8.924-1.272 13.539l-1.305-0.107c0.376-4.622 0.804-9.179 1.279-13.573v-0.022l4e-3 -0.011v-7e-3l4e-3 -0.037c0.972-8.965 2.58-17.436 3.943-23.718 0.683-3.144 1.306-5.739 1.755-7.575 0.159-0.645 0.295-1.194 0.406-1.644l-0.144-0.044v-4e-3c4e-3 -4e-3 4e-3 -7e-3 4e-3 -0.01 0.059-0.174 0.107-0.329 0.155-0.469l0.026-0.085h3e-3c0.048-0.15 0.092-0.283 0.129-0.395 2.23-6.8 6.532-22.574 16.183-42.395 9.916-20.366 25.483-45.042 50.277-68.816l0.011-0.01 0.015-0.015 0.051-0.048 8e-3 -8e-3 0.018-0.017 0.048-0.045 0.03-0.029 3e-3 -4e-3 0.052-0.048 0.059-0.059 7e-3 -4e-3 0.177-0.173 0.011-7e-3 0.015-0.015 0.048-0.045 4e-3 -3e-3 0.07-0.066 0.011-0.012 7e-3 -7e-3c4.302-4.099 8.884-8.165 13.753-12.179 1.298-1.066 2.658-2.161 4.052-3.263 1.102-0.869 2.259-1.769 3.431-2.664 1.439-1.1 2.883-2.183 4.306-3.226l0.392 0.534z"/><path d="m283.24 196.44-1.294-4e-3c-0.247-1.54-0.505-3.034-0.774-4.478v-0.015l-7e-3 -0.037-4e-3 -0.022-4e-3 -0.019v-0.011l-0.015-0.059-0.01-0.059v-4e-3c-0.874-4.696-1.855-8.85-2.95-12.256v-4e-3c-0.073-0.225-0.147-0.449-0.22-0.675l-8e-3 -0.018-4e-3 -0.015v-4e-3l-3e-3 -0.01-0.012-0.03v-4e-3c-1.559-4.659-4.139-13.978-9.02-26.216v-4e-3l-0.018-0.048-4e-3 -7e-3 -4e-3 -8e-3 -0.01-0.025c-1.475-3.697-3.16-7.656-5.087-11.829-6.821-14.76-16.681-32.189-31.11-50.057-4.99-6.182-10.523-12.411-16.669-18.601-3.332-3.362-6.845-6.709-10.545-10.03l-4e-3 -8e-3 -0.078-0.066h3e-3l-0.036-0.029-8e-3 -7e-3 -0.041-0.037 4e-3 4e-3c-3.597-3.226-7.376-6.426-11.339-9.585l4e-3 -1.191c21.332 15.641 72.561 63.964 89.267 145.47"/></g><g display="none"><path d="m386.07 74.738-276.45 0.18733 138.13 346.09c114.7-94.872 138.02-161.97 138.32-346.27z" fill="none" stroke="#000" stroke-width="1px"/></g></svg>
