<?xml version="1.0" encoding="UTF-8"?>
<svg width="276.47" height="346.28" version="1.1" viewBox="0 0 276.47 346.28" xml:space="preserve" xmlns="http://www.w3.org/2000/svg" xmlns:cc="http://creativecommons.org/ns#" xmlns:dc="http://purl.org/dc/elements/1.1/" xmlns:rdf="http://www.w3.org/1999/02/22-rdf-syntax-ns#"><metadata><rdf:RDF><cc:Work rdf:about=""><dc:format>image/svg+xml</dc:format><dc:type rdf:resource="http://purl.org/dc/dcmitype/StillImage"/><dc:title/></cc:Work></rdf:RDF></metadata><defs><clipPath id="clipPath26"><path d="m0 360h360v-360h-360z"/></clipPath></defs><g transform="matrix(1.3333 0 0 -1.3333 -109.61 405.26)"><g clip-path="url(#clipPath26)"><g transform="translate(176.8 196.44)"><path d="m0 0-88.017-3e-3c1.54-5.515 12.614-86.16 88.352-144.72z" fill="#fff"/></g><g transform="translate(289.56 303.95)"><path d="m0 0-95.299-0.142c-0.162 0-2.097-90.332-2.097-90.332l93.362 0.554c0.151 0 4.034 89.92 4.034 89.92" fill="#fff"/></g><g transform="translate(193.97 50.975)"><path d="m0 0c21.333 15.641 72.561 63.964 89.267 145.47l-89.971-0.229z" fill="#fff"/></g><g transform="translate(194 48.55)"><path d="m0 0 0.235 0.207z" fill="#467cbf"/></g><g transform="translate(285.52 214.03)"><path d="m0 0c0-3e-3 0-3e-3 -4e-3 -3e-3l-1.312-8e-3c-0.645-6.237-1.394-12.183-2.264-17.58h1.298c-16.706-81.503-67.934-129.82-89.267-145.46l-7e-3 1.191c-2.639-2.105-5.364-4.195-8.173-6.263 0.137-0.1 0.273-0.199 0.41-0.299l-0.384-0.519 0.361-0.513 0.21 0.147 4e-3 4e-3 8e-3 4e-3c7.125 5.239 13.705 10.606 19.776 16.046l0.045 0.041 0.036 0.029 0.056 0.056 0.011 7e-3 8e-3 8e-3c3.722 3.34 7.253 6.705 10.608 10.085 6.175 6.226 11.741 12.489 16.755 18.701 14.509 17.967 24.425 35.491 31.281 50.332 1.936 4.187 3.627 8.169 5.109 11.881l0.023 0.048 0.051 0.122v7e-3c4.888 12.275 7.483 21.657 9.02 26.231l8e-3 0.022v7e-3l4e-3 0.016 3e-3 7e-3 4e-3 8e-3v-4e-3c0.074 0.228 0.151 0.461 0.228 0.7 1.124 3.498 2.116 7.723 3.001 12.478l0.011 0.059v4e-3l8e-3 0.044 3e-3 0.011v0.015l4e-3 0.014c1.22 6.606 2.23 14.229 3.067 22.328m4.032 89.916-94.887-0.082v-0.059h93.723v-32.745c-1.187-24.528-2.647-54.291-2.849-56.857 1.053 10.256 1.832 21.266 2.407 31.938l7e-3 0.144v0.018c0.619 11.52 0.995 22.634 1.231 31.953 0.273 10.926 0.343 21.288 0.365 25.034z" fill="#808285"/></g><g transform="translate(288.39 303.81)"><path d="m0 0h-93.724v-1.246l93.573 0.081c-0.023-4.194-0.1-14.026-0.362-24.351-0.232-9.312-0.612-20.422-1.227-31.931v-0.018l-7e-3 -0.125c-0.579-10.768-1.368-21.882-2.438-32.196l1.317 7e-3v4e-3c8e-3 0.059 0.011 0.118 0.018 0.173 0.204 2.566 1.663 32.329 2.85 56.857z" fill="#808285"/></g><g transform="translate(283.24 196.44)"><path d="m0 0-1.294-4e-3c-0.247-1.54-0.505-3.034-0.774-4.478v-0.015l-7e-3 -0.037-4e-3 -0.022-4e-3 -0.019v-0.011l-0.015-0.059-0.01-0.059v-4e-3c-0.874-4.696-1.855-8.85-2.95-12.256v-4e-3c-0.073-0.225-0.147-0.449-0.22-0.675l-8e-3 -0.018-4e-3 -0.015v-4e-3l-3e-3 -0.01-0.012-0.03v-4e-3c-1.559-4.659-4.139-13.978-9.02-26.216v-4e-3l-0.018-0.048-4e-3 -7e-3 -4e-3 -8e-3 -0.01-0.025c-1.475-3.697-3.16-7.656-5.087-11.829-6.821-14.76-16.681-32.189-31.11-50.057-4.99-6.182-10.523-12.411-16.669-18.601-3.332-3.362-6.845-6.709-10.545-10.03l-4e-3 -8e-3 -0.078-0.066h3e-3l-0.036-0.029-8e-3 -7e-3 -0.041-0.037 4e-3 4e-3c-3.597-3.226-7.376-6.426-11.339-9.585l4e-3 -1.191c21.332 15.641 72.561 63.964 89.267 145.47" fill="#808285"/></g><g transform="translate(185.43 45.644)"><path d="m0 0 0.207 0.144c0.052 0.041 0.106 0.077 0.162 0.118-1.327 0.98-2.702 2.016-4.058 3.055-1.092 0.833-2.179 1.678-3.245 2.518-0.32 0.251-0.637 0.505-0.947 0.752-0.136 0.107-0.273 0.218-0.409 0.325v-0.452l-2e-3 0.451c-0.911 0.73-1.799 1.452-2.662 2.16-4.851 3.995-9.407 8.047-13.69 12.124l-7e-3 7e-3h-4e-3l-0.055 0.056 7e-3 -4e-3 -7e-3 8e-3 -0.011 7e-3 -0.074 0.07-8e-3 8e-3 -7e-3 3e-3 -0.162 0.159-0.033 0.033-0.012 7e-3 -0.036 0.037-0.037 0.033-0.03 0.029-0.051 0.052-8e-3 8e-3 -0.026 0.021-0.058 0.056-0.026 0.026c-24.658 23.643-40.133 48.179-49.993 68.435-9.334 19.169-13.625 34.479-15.922 41.629-7e-3 0.118-0.014 0.133-0.025 0.195-0.078 0.388-0.387 1.578-0.852 3.495-0.811 3.322-2.075 8.737-3.266 15.232h-1.294c1.541-5.514 12.615-86.158 88.351-144.72-75.738 58.564-86.812 139.21-88.353 144.72h1.294c-0.855 4.674-1.681 9.912-2.267 15.32v0.011l-7e-3 0.063-4e-3 3e-3v0.012l-3e-3 0.022c-0.472 4.382-0.896 8.924-1.272 13.539l-1.305-0.107c0.376-4.622 0.804-9.179 1.279-13.573v-0.022l4e-3 -0.011v-7e-3l4e-3 -0.037c0.972-8.965 2.58-17.436 3.943-23.718 0.683-3.144 1.306-5.739 1.755-7.575 0.159-0.645 0.295-1.194 0.406-1.644l-0.144-0.044v-4e-3c4e-3 -4e-3 4e-3 -7e-3 4e-3 -0.01 0.059-0.174 0.107-0.329 0.155-0.469l0.026-0.085h3e-3c0.048-0.15 0.092-0.283 0.129-0.395 2.23-6.8 6.532-22.574 16.183-42.395 9.916-20.366 25.483-45.042 50.277-68.816l0.011-0.01 0.015-0.015 0.051-0.048 8e-3 -8e-3 0.018-0.017 0.048-0.045 0.03-0.029 3e-3 -4e-3 0.052-0.048 0.059-0.059 7e-3 -4e-3 0.177-0.173 0.011-7e-3 0.015-0.015 0.048-0.045 4e-3 -3e-3 0.07-0.066 0.011-0.012 7e-3 -7e-3c4.302-4.099 8.884-8.165 13.753-12.179 1.298-1.066 2.658-2.161 4.052-3.263 1.102-0.869 2.259-1.769 3.431-2.664 1.439-1.1 2.883-2.183 4.306-3.226l0.392 0.534z" fill="#808285"/></g><g transform="translate(177.15 303.84)"><path d="m0 0-94.933-0.037c-0.069-2.728 0.048-51.748 4.015-89.779h90.84" fill="#036cb6"/></g><g transform="translate(127.59 245.92)"><path d="m0 0-1.062 1.74v0.627h-1.504v-0.863h-6.193v6.838h0.815v1.596h-0.597l-1.644 1.113h-0.594l-1.736-1.113h-0.623v-1.596h0.825v-6.838h-6.491v0.863h-1.515v-0.638l-1.061-1.729v-0.638l1.061-1.824v-0.645h1.515v0.851h6.491v-6.506h-0.825v-1.593h0.604l1.659-1.124h0.586l1.741 1.124h0.604v1.593h-0.815v6.506h6.193v-0.851h1.504v0.633l1.062 1.836z" fill="#fff"/></g><g transform="translate(112.43 285.4)"><path d="m0 0-1.065 1.729v0.634h-1.508v-0.855h-6.182v6.838h0.803v1.589h-0.589l-1.652 1.131h-0.59l-1.747-1.131h-0.616v-1.589h0.833v-6.842l-6.495 4e-3v0.855h-1.507v-0.634l-1.073-1.729v-0.634l1.073-1.825v-0.645h1.507v0.859l6.495-7e-3v-6.507h-0.833v-1.596h0.609l1.64-1.121h0.601l1.736 1.121h0.608v1.596h-0.803v6.514h6.182v-0.859h1.508v0.645l1.065 1.825z" fill="#fff"/></g><g transform="translate(127.59 272.35)"><path d="m0 0-1.062 1.736v0.63h-1.504v-0.859h-6.193v6.846h0.815v1.589h-0.586l-1.655 1.128h-0.594l-1.743-1.128h-0.616v-1.589h0.825v-6.846h-6.491v0.859h-1.515v-0.637l-1.061-1.729v-0.63l1.061-1.825v-0.645h1.515v0.859l6.491-4e-3v-6.514h-0.825v-1.596h0.612l1.651-1.117h0.586l1.733 1.117h0.612v1.596h-0.815v6.518h6.193v-0.859h1.504v0.634l1.062 1.836z" fill="#fff"/></g><g transform="translate(142.76 259.3)"><path d="m0 0-1.069 1.732v0.627h-1.515v-0.855h-6.167v6.842h0.814v1.589h-0.601l-1.655 1.128h-0.593l-1.74-1.128h-0.612v-1.589h0.811v-6.842h-6.462v0.855h-1.53v-0.627l-1.069-1.732v-0.642l1.069-1.813v-0.649h1.53v0.863l6.462-4e-3v-6.521h-0.811v-1.585h0.608l1.644-1.125h0.597l1.726 1.125h0.626v1.585h-0.814v6.525h6.167v-0.863h1.515v0.645l1.069 1.817z" fill="#fff"/></g><g transform="translate(157.93 246.24)"><path d="m0 0-1.062 1.74v0.623h-1.504v-0.896h-6.182v6.886h0.808v1.588h-0.601l-1.651 1.125h-0.59l-1.737-1.125h-0.604v-1.588h0.818v-6.846l-6.51 4e-3v0.852h-1.507v-0.634l-1.055-1.729v-0.63l1.055-1.818v-0.645h1.507v0.848l6.51-4e-3v-6.517h-0.818v-1.585h0.59l1.644-1.125h0.604l1.737 1.125h0.608v1.585h-0.808v6.473h6.182v-0.8h1.504v0.634l1.062 1.829z" fill="#fff"/></g><g transform="translate(173.09 233.19)"><path d="m0 0-1.062 1.721v0.646h-1.511v-0.859h-6.186v6.841h0.808v1.593h-0.579l-1.663 1.124h-0.604l-1.733-1.124h-0.604v-1.593h0.814v-6.841h-6.495v0.859h-1.5v-0.635l-1.073-1.732v-0.634l1.073-1.821v-0.645h1.5v0.855h6.495v-6.514h-0.814v-1.599h0.623l1.633-1.114h0.589l1.722 1.114h0.616v1.599h-0.808v6.514h6.186v-0.855h1.511v0.656l1.062 1.81z" fill="#fff"/></g><g transform="translate(157 272.67)"><path d="m0 0-1.069 1.74v0.631h-1.522v-0.859h-6.175v6.841h0.822v1.593h-0.594l-1.654 1.124h-0.601l-1.748-1.124h-0.601v-1.593h0.822v-6.841h-6.48v0.859h-1.53v-0.664l-1.05-1.707v-0.626l1.05-1.792v-0.678h1.53v0.859h6.48v-6.521h-0.822v-1.586h0.609l1.655-1.124h0.593l1.737 1.124h0.604v1.586h-0.822v6.521h6.175v-0.859h1.522v0.645l1.069 1.825z" fill="#fff"/></g><g transform="translate(172.47 286.05)"><path d="m0 0-1.069 1.732v0.635h-1.496v-0.859h-6.186v6.841h0.807v1.593h-0.578l-1.659 1.124h-0.601l-1.74-1.124h-0.608v-1.593h0.825v-6.841h-6.495v0.859h-1.515v-0.623l-1.054-1.744v-0.634l1.054-1.832v-0.634h1.515v0.855h6.495v-6.525h-0.825v-1.581h0.593l1.655-1.117h0.605l1.74 1.117h0.593v1.581h-0.807v6.525h6.186v-0.855h1.496v0.645l1.069 1.821z" fill="#fff"/></g><g transform="translate(112.1 232.54)"><path d="m0 0-1.047 1.725v0.645h-1.504v-0.855h-6.189v6.841h0.819v1.582h-0.601l-1.656 1.125h-0.586l-1.743-1.125h-0.609v-1.582h0.823v-6.848l-6.496 3e-3v0.859h-1.522v-0.652l-1.062-1.718v-0.634l1.062-1.806v-0.66h1.522v0.855l6.496-7e-3v-6.507h-0.823v-1.592h0.601l1.648-1.121h0.597l1.726 1.121h0.623v1.592h-0.819v6.514h6.189v-0.855h1.504v0.648l1.047 1.818z" fill="#fff"/></g><g transform="translate(280.11 214.03)"><path d="m0 0h-85.455v89.827h-17.584v-4.707h-3e-3v-85.12h-90.841c0.653-6.244 1.501-12.157 2.555-17.587l88.016 4e-3 0.273-145.51c2.688-2.146 8.693-6.661 8.741-6.695 0 0 6.016 4.516 8.843 6.776v145.43h88.585c0.873 5.4 1.629 11.342 2.277 17.583z" fill="#c51f3e"/></g></g></g></svg>
